<?xml version="1.0" encoding="utf-8" standalone="no"?>
<!DOCTYPE svg PUBLIC "-//W3C//DTD SVG 1.1//EN"
  "http://www.w3.org/Graphics/SVG/1.1/DTD/svg11.dtd">
<!-- Created with matplotlib (https://matplotlib.org/) -->
<svg height="576pt" version="1.1" viewBox="0 0 864 576" width="864pt" xmlns="http://www.w3.org/2000/svg" xmlns:xlink="http://www.w3.org/1999/xlink">
 <metadata>
  <rdf:RDF xmlns:cc="http://creativecommons.org/ns#" xmlns:dc="http://purl.org/dc/elements/1.1/" xmlns:rdf="http://www.w3.org/1999/02/22-rdf-syntax-ns#">
   <cc:Work>
    <dc:type rdf:resource="http://purl.org/dc/dcmitype/StillImage"/>
    <dc:date>2021-08-06T15:53:42.589633</dc:date>
    <dc:format>image/svg+xml</dc:format>
    <dc:creator>
     <cc:Agent>
      <dc:title>Matplotlib v3.3.2, https://matplotlib.org/</dc:title>
     </cc:Agent>
    </dc:creator>
   </cc:Work>
  </rdf:RDF>
 </metadata>
 <defs>
  <style type="text/css">*{stroke-linecap:butt;stroke-linejoin:round;}</style>
 </defs>
 <g id="figure_1">
  <g id="patch_1">
   <path d="M 0 576 
L 864 576 
L 864 0 
L 0 0 
z
" style="fill:none;"/>
  </g>
  <g id="axes_1">
   <g id="patch_2">
    <path d="M 108 504 
L 777.6 504 
L 777.6 69.12 
L 108 69.12 
z
" style="fill:#ffffff;"/>
   </g>
   <g id="matplotlib.axis_1">
    <g id="xtick_1">
     <g id="line2d_1">
      <defs>
       <path d="M 0 0 
L 0 3.5 
" id="m922a4c6251" style="stroke:#000000;stroke-width:0.8;"/>
      </defs>
      <g>
       <use style="stroke:#000000;stroke-width:0.8;" x="138.436364" xlink:href="#m922a4c6251" y="504"/>
      </g>
     </g>
     <g id="text_1">
      <!-- 1.2965 -->
      <g transform="translate(120.941051 518.598438)scale(0.1 -0.1)">
       <defs>
        <path d="M 12.40625 8.296875 
L 28.515625 8.296875 
L 28.515625 63.921875 
L 10.984375 60.40625 
L 10.984375 69.390625 
L 28.421875 72.90625 
L 38.28125 72.90625 
L 38.28125 8.296875 
L 54.390625 8.296875 
L 54.390625 0 
L 12.40625 0 
z
" id="DejaVuSans-49"/>
        <path d="M 10.6875 12.40625 
L 21 12.40625 
L 21 0 
L 10.6875 0 
z
" id="DejaVuSans-46"/>
        <path d="M 19.1875 8.296875 
L 53.609375 8.296875 
L 53.609375 0 
L 7.328125 0 
L 7.328125 8.296875 
Q 12.9375 14.109375 22.625 23.890625 
Q 32.328125 33.6875 34.8125 36.53125 
Q 39.546875 41.84375 41.421875 45.53125 
Q 43.3125 49.21875 43.3125 52.78125 
Q 43.3125 58.59375 39.234375 62.25 
Q 35.15625 65.921875 28.609375 65.921875 
Q 23.96875 65.921875 18.8125 64.3125 
Q 13.671875 62.703125 7.8125 59.421875 
L 7.8125 69.390625 
Q 13.765625 71.78125 18.9375 73 
Q 24.125 74.21875 28.421875 74.21875 
Q 39.75 74.21875 46.484375 68.546875 
Q 53.21875 62.890625 53.21875 53.421875 
Q 53.21875 48.921875 51.53125 44.890625 
Q 49.859375 40.875 45.40625 35.40625 
Q 44.1875 33.984375 37.640625 27.21875 
Q 31.109375 20.453125 19.1875 8.296875 
z
" id="DejaVuSans-50"/>
        <path d="M 10.984375 1.515625 
L 10.984375 10.5 
Q 14.703125 8.734375 18.5 7.8125 
Q 22.3125 6.890625 25.984375 6.890625 
Q 35.75 6.890625 40.890625 13.453125 
Q 46.046875 20.015625 46.78125 33.40625 
Q 43.953125 29.203125 39.59375 26.953125 
Q 35.25 24.703125 29.984375 24.703125 
Q 19.046875 24.703125 12.671875 31.3125 
Q 6.296875 37.9375 6.296875 49.421875 
Q 6.296875 60.640625 12.9375 67.421875 
Q 19.578125 74.21875 30.609375 74.21875 
Q 43.265625 74.21875 49.921875 64.515625 
Q 56.59375 54.828125 56.59375 36.375 
Q 56.59375 19.140625 48.40625 8.859375 
Q 40.234375 -1.421875 26.421875 -1.421875 
Q 22.703125 -1.421875 18.890625 -0.6875 
Q 15.09375 0.046875 10.984375 1.515625 
z
M 30.609375 32.421875 
Q 37.25 32.421875 41.125 36.953125 
Q 45.015625 41.5 45.015625 49.421875 
Q 45.015625 57.28125 41.125 61.84375 
Q 37.25 66.40625 30.609375 66.40625 
Q 23.96875 66.40625 20.09375 61.84375 
Q 16.21875 57.28125 16.21875 49.421875 
Q 16.21875 41.5 20.09375 36.953125 
Q 23.96875 32.421875 30.609375 32.421875 
z
" id="DejaVuSans-57"/>
        <path d="M 33.015625 40.375 
Q 26.375 40.375 22.484375 35.828125 
Q 18.609375 31.296875 18.609375 23.390625 
Q 18.609375 15.53125 22.484375 10.953125 
Q 26.375 6.390625 33.015625 6.390625 
Q 39.65625 6.390625 43.53125 10.953125 
Q 47.40625 15.53125 47.40625 23.390625 
Q 47.40625 31.296875 43.53125 35.828125 
Q 39.65625 40.375 33.015625 40.375 
z
M 52.59375 71.296875 
L 52.59375 62.3125 
Q 48.875 64.0625 45.09375 64.984375 
Q 41.3125 65.921875 37.59375 65.921875 
Q 27.828125 65.921875 22.671875 59.328125 
Q 17.53125 52.734375 16.796875 39.40625 
Q 19.671875 43.65625 24.015625 45.921875 
Q 28.375 48.1875 33.59375 48.1875 
Q 44.578125 48.1875 50.953125 41.515625 
Q 57.328125 34.859375 57.328125 23.390625 
Q 57.328125 12.15625 50.6875 5.359375 
Q 44.046875 -1.421875 33.015625 -1.421875 
Q 20.359375 -1.421875 13.671875 8.265625 
Q 6.984375 17.96875 6.984375 36.375 
Q 6.984375 53.65625 15.1875 63.9375 
Q 23.390625 74.21875 37.203125 74.21875 
Q 40.921875 74.21875 44.703125 73.484375 
Q 48.484375 72.75 52.59375 71.296875 
z
" id="DejaVuSans-54"/>
        <path d="M 10.796875 72.90625 
L 49.515625 72.90625 
L 49.515625 64.59375 
L 19.828125 64.59375 
L 19.828125 46.734375 
Q 21.96875 47.46875 24.109375 47.828125 
Q 26.265625 48.1875 28.421875 48.1875 
Q 40.625 48.1875 47.75 41.5 
Q 54.890625 34.8125 54.890625 23.390625 
Q 54.890625 11.625 47.5625 5.09375 
Q 40.234375 -1.421875 26.90625 -1.421875 
Q 22.3125 -1.421875 17.546875 -0.640625 
Q 12.796875 0.140625 7.71875 1.703125 
L 7.71875 11.625 
Q 12.109375 9.234375 16.796875 8.0625 
Q 21.484375 6.890625 26.703125 6.890625 
Q 35.15625 6.890625 40.078125 11.328125 
Q 45.015625 15.765625 45.015625 23.390625 
Q 45.015625 31 40.078125 35.4375 
Q 35.15625 39.890625 26.703125 39.890625 
Q 22.75 39.890625 18.8125 39.015625 
Q 14.890625 38.140625 10.796875 36.28125 
z
" id="DejaVuSans-53"/>
       </defs>
       <use xlink:href="#DejaVuSans-49"/>
       <use x="63.623047" xlink:href="#DejaVuSans-46"/>
       <use x="95.410156" xlink:href="#DejaVuSans-50"/>
       <use x="159.033203" xlink:href="#DejaVuSans-57"/>
       <use x="222.65625" xlink:href="#DejaVuSans-54"/>
       <use x="286.279297" xlink:href="#DejaVuSans-53"/>
      </g>
     </g>
    </g>
    <g id="xtick_2">
     <g id="line2d_2">
      <g>
       <use style="stroke:#000000;stroke-width:0.8;" x="238.720923" xlink:href="#m922a4c6251" y="504"/>
      </g>
     </g>
     <g id="text_2">
      <!-- 1.2966 -->
      <g transform="translate(221.22561 518.598438)scale(0.1 -0.1)">
       <use xlink:href="#DejaVuSans-49"/>
       <use x="63.623047" xlink:href="#DejaVuSans-46"/>
       <use x="95.410156" xlink:href="#DejaVuSans-50"/>
       <use x="159.033203" xlink:href="#DejaVuSans-57"/>
       <use x="222.65625" xlink:href="#DejaVuSans-54"/>
       <use x="286.279297" xlink:href="#DejaVuSans-54"/>
      </g>
     </g>
    </g>
    <g id="xtick_3">
     <g id="line2d_3">
      <g>
       <use style="stroke:#000000;stroke-width:0.8;" x="339.005482" xlink:href="#m922a4c6251" y="504"/>
      </g>
     </g>
     <g id="text_3">
      <!-- 1.2967 -->
      <g transform="translate(321.510169 518.598438)scale(0.1 -0.1)">
       <defs>
        <path d="M 8.203125 72.90625 
L 55.078125 72.90625 
L 55.078125 68.703125 
L 28.609375 0 
L 18.3125 0 
L 43.21875 64.59375 
L 8.203125 64.59375 
z
" id="DejaVuSans-55"/>
       </defs>
       <use xlink:href="#DejaVuSans-49"/>
       <use x="63.623047" xlink:href="#DejaVuSans-46"/>
       <use x="95.410156" xlink:href="#DejaVuSans-50"/>
       <use x="159.033203" xlink:href="#DejaVuSans-57"/>
       <use x="222.65625" xlink:href="#DejaVuSans-54"/>
       <use x="286.279297" xlink:href="#DejaVuSans-55"/>
      </g>
     </g>
    </g>
    <g id="xtick_4">
     <g id="line2d_4">
      <g>
       <use style="stroke:#000000;stroke-width:0.8;" x="439.29004" xlink:href="#m922a4c6251" y="504"/>
      </g>
     </g>
     <g id="text_4">
      <!-- 1.2968 -->
      <g transform="translate(421.794728 518.598438)scale(0.1 -0.1)">
       <defs>
        <path d="M 31.78125 34.625 
Q 24.75 34.625 20.71875 30.859375 
Q 16.703125 27.09375 16.703125 20.515625 
Q 16.703125 13.921875 20.71875 10.15625 
Q 24.75 6.390625 31.78125 6.390625 
Q 38.8125 6.390625 42.859375 10.171875 
Q 46.921875 13.96875 46.921875 20.515625 
Q 46.921875 27.09375 42.890625 30.859375 
Q 38.875 34.625 31.78125 34.625 
z
M 21.921875 38.8125 
Q 15.578125 40.375 12.03125 44.71875 
Q 8.5 49.078125 8.5 55.328125 
Q 8.5 64.0625 14.71875 69.140625 
Q 20.953125 74.21875 31.78125 74.21875 
Q 42.671875 74.21875 48.875 69.140625 
Q 55.078125 64.0625 55.078125 55.328125 
Q 55.078125 49.078125 51.53125 44.71875 
Q 48 40.375 41.703125 38.8125 
Q 48.828125 37.15625 52.796875 32.3125 
Q 56.78125 27.484375 56.78125 20.515625 
Q 56.78125 9.90625 50.3125 4.234375 
Q 43.84375 -1.421875 31.78125 -1.421875 
Q 19.734375 -1.421875 13.25 4.234375 
Q 6.78125 9.90625 6.78125 20.515625 
Q 6.78125 27.484375 10.78125 32.3125 
Q 14.796875 37.15625 21.921875 38.8125 
z
M 18.3125 54.390625 
Q 18.3125 48.734375 21.84375 45.5625 
Q 25.390625 42.390625 31.78125 42.390625 
Q 38.140625 42.390625 41.71875 45.5625 
Q 45.3125 48.734375 45.3125 54.390625 
Q 45.3125 60.0625 41.71875 63.234375 
Q 38.140625 66.40625 31.78125 66.40625 
Q 25.390625 66.40625 21.84375 63.234375 
Q 18.3125 60.0625 18.3125 54.390625 
z
" id="DejaVuSans-56"/>
       </defs>
       <use xlink:href="#DejaVuSans-49"/>
       <use x="63.623047" xlink:href="#DejaVuSans-46"/>
       <use x="95.410156" xlink:href="#DejaVuSans-50"/>
       <use x="159.033203" xlink:href="#DejaVuSans-57"/>
       <use x="222.65625" xlink:href="#DejaVuSans-54"/>
       <use x="286.279297" xlink:href="#DejaVuSans-56"/>
      </g>
     </g>
    </g>
    <g id="xtick_5">
     <g id="line2d_5">
      <g>
       <use style="stroke:#000000;stroke-width:0.8;" x="539.574599" xlink:href="#m922a4c6251" y="504"/>
      </g>
     </g>
     <g id="text_5">
      <!-- 1.2969 -->
      <g transform="translate(522.079287 518.598438)scale(0.1 -0.1)">
       <use xlink:href="#DejaVuSans-49"/>
       <use x="63.623047" xlink:href="#DejaVuSans-46"/>
       <use x="95.410156" xlink:href="#DejaVuSans-50"/>
       <use x="159.033203" xlink:href="#DejaVuSans-57"/>
       <use x="222.65625" xlink:href="#DejaVuSans-54"/>
       <use x="286.279297" xlink:href="#DejaVuSans-57"/>
      </g>
     </g>
    </g>
    <g id="xtick_6">
     <g id="line2d_6">
      <g>
       <use style="stroke:#000000;stroke-width:0.8;" x="639.859158" xlink:href="#m922a4c6251" y="504"/>
      </g>
     </g>
     <g id="text_6">
      <!-- 1.2970 -->
      <g transform="translate(622.363846 518.598438)scale(0.1 -0.1)">
       <defs>
        <path d="M 31.78125 66.40625 
Q 24.171875 66.40625 20.328125 58.90625 
Q 16.5 51.421875 16.5 36.375 
Q 16.5 21.390625 20.328125 13.890625 
Q 24.171875 6.390625 31.78125 6.390625 
Q 39.453125 6.390625 43.28125 13.890625 
Q 47.125 21.390625 47.125 36.375 
Q 47.125 51.421875 43.28125 58.90625 
Q 39.453125 66.40625 31.78125 66.40625 
z
M 31.78125 74.21875 
Q 44.046875 74.21875 50.515625 64.515625 
Q 56.984375 54.828125 56.984375 36.375 
Q 56.984375 17.96875 50.515625 8.265625 
Q 44.046875 -1.421875 31.78125 -1.421875 
Q 19.53125 -1.421875 13.0625 8.265625 
Q 6.59375 17.96875 6.59375 36.375 
Q 6.59375 54.828125 13.0625 64.515625 
Q 19.53125 74.21875 31.78125 74.21875 
z
" id="DejaVuSans-48"/>
       </defs>
       <use xlink:href="#DejaVuSans-49"/>
       <use x="63.623047" xlink:href="#DejaVuSans-46"/>
       <use x="95.410156" xlink:href="#DejaVuSans-50"/>
       <use x="159.033203" xlink:href="#DejaVuSans-57"/>
       <use x="222.65625" xlink:href="#DejaVuSans-55"/>
       <use x="286.279297" xlink:href="#DejaVuSans-48"/>
      </g>
     </g>
    </g>
    <g id="xtick_7">
     <g id="line2d_7">
      <g>
       <use style="stroke:#000000;stroke-width:0.8;" x="740.143717" xlink:href="#m922a4c6251" y="504"/>
      </g>
     </g>
     <g id="text_7">
      <!-- 1.2971 -->
      <g transform="translate(722.648405 518.598438)scale(0.1 -0.1)">
       <use xlink:href="#DejaVuSans-49"/>
       <use x="63.623047" xlink:href="#DejaVuSans-46"/>
       <use x="95.410156" xlink:href="#DejaVuSans-50"/>
       <use x="159.033203" xlink:href="#DejaVuSans-57"/>
       <use x="222.65625" xlink:href="#DejaVuSans-55"/>
       <use x="286.279297" xlink:href="#DejaVuSans-49"/>
      </g>
     </g>
    </g>
    <g id="text_8">
     <!-- block -->
     <g transform="translate(429.532813 532.276562)scale(0.1 -0.1)">
      <defs>
       <path d="M 48.6875 27.296875 
Q 48.6875 37.203125 44.609375 42.84375 
Q 40.53125 48.484375 33.40625 48.484375 
Q 26.265625 48.484375 22.1875 42.84375 
Q 18.109375 37.203125 18.109375 27.296875 
Q 18.109375 17.390625 22.1875 11.75 
Q 26.265625 6.109375 33.40625 6.109375 
Q 40.53125 6.109375 44.609375 11.75 
Q 48.6875 17.390625 48.6875 27.296875 
z
M 18.109375 46.390625 
Q 20.953125 51.265625 25.265625 53.625 
Q 29.59375 56 35.59375 56 
Q 45.5625 56 51.78125 48.09375 
Q 58.015625 40.1875 58.015625 27.296875 
Q 58.015625 14.40625 51.78125 6.484375 
Q 45.5625 -1.421875 35.59375 -1.421875 
Q 29.59375 -1.421875 25.265625 0.953125 
Q 20.953125 3.328125 18.109375 8.203125 
L 18.109375 0 
L 9.078125 0 
L 9.078125 75.984375 
L 18.109375 75.984375 
z
" id="DejaVuSans-98"/>
       <path d="M 9.421875 75.984375 
L 18.40625 75.984375 
L 18.40625 0 
L 9.421875 0 
z
" id="DejaVuSans-108"/>
       <path d="M 30.609375 48.390625 
Q 23.390625 48.390625 19.1875 42.75 
Q 14.984375 37.109375 14.984375 27.296875 
Q 14.984375 17.484375 19.15625 11.84375 
Q 23.34375 6.203125 30.609375 6.203125 
Q 37.796875 6.203125 41.984375 11.859375 
Q 46.1875 17.53125 46.1875 27.296875 
Q 46.1875 37.015625 41.984375 42.703125 
Q 37.796875 48.390625 30.609375 48.390625 
z
M 30.609375 56 
Q 42.328125 56 49.015625 48.375 
Q 55.71875 40.765625 55.71875 27.296875 
Q 55.71875 13.875 49.015625 6.21875 
Q 42.328125 -1.421875 30.609375 -1.421875 
Q 18.84375 -1.421875 12.171875 6.21875 
Q 5.515625 13.875 5.515625 27.296875 
Q 5.515625 40.765625 12.171875 48.375 
Q 18.84375 56 30.609375 56 
z
" id="DejaVuSans-111"/>
       <path d="M 48.78125 52.59375 
L 48.78125 44.1875 
Q 44.96875 46.296875 41.140625 47.34375 
Q 37.3125 48.390625 33.40625 48.390625 
Q 24.65625 48.390625 19.8125 42.84375 
Q 14.984375 37.3125 14.984375 27.296875 
Q 14.984375 17.28125 19.8125 11.734375 
Q 24.65625 6.203125 33.40625 6.203125 
Q 37.3125 6.203125 41.140625 7.25 
Q 44.96875 8.296875 48.78125 10.40625 
L 48.78125 2.09375 
Q 45.015625 0.34375 40.984375 -0.53125 
Q 36.96875 -1.421875 32.421875 -1.421875 
Q 20.0625 -1.421875 12.78125 6.34375 
Q 5.515625 14.109375 5.515625 27.296875 
Q 5.515625 40.671875 12.859375 48.328125 
Q 20.21875 56 33.015625 56 
Q 37.15625 56 41.109375 55.140625 
Q 45.0625 54.296875 48.78125 52.59375 
z
" id="DejaVuSans-99"/>
       <path d="M 9.078125 75.984375 
L 18.109375 75.984375 
L 18.109375 31.109375 
L 44.921875 54.6875 
L 56.390625 54.6875 
L 27.390625 29.109375 
L 57.625 0 
L 45.90625 0 
L 18.109375 26.703125 
L 18.109375 0 
L 9.078125 0 
z
" id="DejaVuSans-107"/>
      </defs>
      <use xlink:href="#DejaVuSans-98"/>
      <use x="63.476562" xlink:href="#DejaVuSans-108"/>
      <use x="91.259766" xlink:href="#DejaVuSans-111"/>
      <use x="152.441406" xlink:href="#DejaVuSans-99"/>
      <use x="207.421875" xlink:href="#DejaVuSans-107"/>
     </g>
    </g>
    <g id="text_9">
     <!-- 1e7 -->
     <g transform="translate(758.721875 531.276562)scale(0.1 -0.1)">
      <defs>
       <path d="M 56.203125 29.59375 
L 56.203125 25.203125 
L 14.890625 25.203125 
Q 15.484375 15.921875 20.484375 11.0625 
Q 25.484375 6.203125 34.421875 6.203125 
Q 39.59375 6.203125 44.453125 7.46875 
Q 49.3125 8.734375 54.109375 11.28125 
L 54.109375 2.78125 
Q 49.265625 0.734375 44.1875 -0.34375 
Q 39.109375 -1.421875 33.890625 -1.421875 
Q 20.796875 -1.421875 13.15625 6.1875 
Q 5.515625 13.8125 5.515625 26.8125 
Q 5.515625 40.234375 12.765625 48.109375 
Q 20.015625 56 32.328125 56 
Q 43.359375 56 49.78125 48.890625 
Q 56.203125 41.796875 56.203125 29.59375 
z
M 47.21875 32.234375 
Q 47.125 39.59375 43.09375 43.984375 
Q 39.0625 48.390625 32.421875 48.390625 
Q 24.90625 48.390625 20.390625 44.140625 
Q 15.875 39.890625 15.1875 32.171875 
z
" id="DejaVuSans-101"/>
      </defs>
      <use xlink:href="#DejaVuSans-49"/>
      <use x="63.623047" xlink:href="#DejaVuSans-101"/>
      <use x="125.146484" xlink:href="#DejaVuSans-55"/>
     </g>
    </g>
   </g>
   <g id="matplotlib.axis_2">
    <g id="ytick_1">
     <g id="line2d_8">
      <defs>
       <path d="M 0 0 
L -3.5 0 
" id="m08486fe2e5" style="stroke:#000000;stroke-width:0.8;"/>
      </defs>
      <g>
       <use style="stroke:#000000;stroke-width:0.8;" x="108" xlink:href="#m08486fe2e5" y="484.29695"/>
      </g>
     </g>
     <g id="text_10">
      <!-- 0 -->
      <g transform="translate(94.6375 488.096169)scale(0.1 -0.1)">
       <use xlink:href="#DejaVuSans-48"/>
      </g>
     </g>
    </g>
    <g id="ytick_2">
     <g id="line2d_9">
      <g>
       <use style="stroke:#000000;stroke-width:0.8;" x="108" xlink:href="#m08486fe2e5" y="398.749299"/>
      </g>
     </g>
     <g id="text_11">
      <!-- 2 -->
      <g transform="translate(94.6375 402.548517)scale(0.1 -0.1)">
       <use xlink:href="#DejaVuSans-50"/>
      </g>
     </g>
    </g>
    <g id="ytick_3">
     <g id="line2d_10">
      <g>
       <use style="stroke:#000000;stroke-width:0.8;" x="108" xlink:href="#m08486fe2e5" y="313.201647"/>
      </g>
     </g>
     <g id="text_12">
      <!-- 4 -->
      <g transform="translate(94.6375 317.000865)scale(0.1 -0.1)">
       <defs>
        <path d="M 37.796875 64.3125 
L 12.890625 25.390625 
L 37.796875 25.390625 
z
M 35.203125 72.90625 
L 47.609375 72.90625 
L 47.609375 25.390625 
L 58.015625 25.390625 
L 58.015625 17.1875 
L 47.609375 17.1875 
L 47.609375 0 
L 37.796875 0 
L 37.796875 17.1875 
L 4.890625 17.1875 
L 4.890625 26.703125 
z
" id="DejaVuSans-52"/>
       </defs>
       <use xlink:href="#DejaVuSans-52"/>
      </g>
     </g>
    </g>
    <g id="ytick_4">
     <g id="line2d_11">
      <g>
       <use style="stroke:#000000;stroke-width:0.8;" x="108" xlink:href="#m08486fe2e5" y="227.653995"/>
      </g>
     </g>
     <g id="text_13">
      <!-- 6 -->
      <g transform="translate(94.6375 231.453214)scale(0.1 -0.1)">
       <use xlink:href="#DejaVuSans-54"/>
      </g>
     </g>
    </g>
    <g id="ytick_5">
     <g id="line2d_12">
      <g>
       <use style="stroke:#000000;stroke-width:0.8;" x="108" xlink:href="#m08486fe2e5" y="142.106343"/>
      </g>
     </g>
     <g id="text_14">
      <!-- 8 -->
      <g transform="translate(94.6375 145.905562)scale(0.1 -0.1)">
       <use xlink:href="#DejaVuSans-56"/>
      </g>
     </g>
    </g>
    <g id="text_15">
     <!-- 1e10 -->
     <g transform="translate(108 66.12)scale(0.1 -0.1)">
      <use xlink:href="#DejaVuSans-49"/>
      <use x="63.623047" xlink:href="#DejaVuSans-101"/>
      <use x="125.146484" xlink:href="#DejaVuSans-49"/>
      <use x="188.769531" xlink:href="#DejaVuSans-48"/>
     </g>
    </g>
   </g>
   <g id="line2d_13">
    <path clip-path="url(#p7e07a33c00)" d="M 138.436364 484.168521 
L 141.344616 480.604507 
L 141.545185 480.52708 
L 143.751445 479.007149 
L 144.052299 478.819951 
L 144.654006 478.281147 
L 144.95486 478.01421 
L 145.355998 477.802262 
L 145.957706 477.480926 
L 148.163966 476.138684 
L 148.665389 475.682997 
L 148.865958 475.541933 
L 149.267096 475.37885 
L 149.467665 475.203575 
L 149.56795 475.203575 
L 150.169657 474.584423 
L 150.570795 474.424752 
L 150.971934 474.051889 
L 151.272787 473.885873 
L 151.573641 473.623191 
L 151.77421 473.595513 
L 152.075064 473.397671 
L 152.576486 473.030631 
L 152.977625 472.830744 
L 153.278478 472.633401 
L 153.579332 472.471544 
L 153.98047 472.185719 
L 154.281324 472.020339 
L 154.582178 471.812526 
L 154.782747 471.674569 
L 154.883031 471.663037 
L 155.183885 471.418923 
L 158.493275 469.282106 
L 158.59356 469.282106 
L 158.994698 468.955749 
L 160.298397 468.182385 
L 160.79982 467.894838 
L 161.200959 467.594643 
L 162.304089 466.935342 
L 162.604942 466.659607 
L 162.905796 466.529558 
L 163.306934 466.147381 
L 163.507503 466.060352 
L 163.908642 465.716748 
L 164.008926 465.716066 
L 164.30978 465.518458 
L 167.017463 463.773002 
L 167.418601 463.60497 
L 167.819739 463.243318 
L 167.920024 463.242146 
L 168.220878 463.017139 
L 168.421447 462.883509 
L 169.123439 462.408299 
L 169.223723 462.408299 
L 169.424292 462.240779 
L 169.725146 462.111685 
L 171.12913 461.310294 
L 171.530268 461.059405 
L 171.931406 460.883131 
L 172.332545 460.566383 
L 173.435675 459.855031 
L 173.636244 459.723534 
L 174.037382 459.43928 
L 174.739374 458.917154 
L 174.839659 458.910422 
L 175.140512 458.723915 
L 175.74222 458.283584 
L 175.842504 458.28126 
L 176.043073 458.121395 
L 176.343927 457.969379 
L 176.745065 457.770601 
L 177.146203 457.452733 
L 177.246488 457.449098 
L 177.647626 457.067652 
L 178.149049 456.842479 
L 178.449903 456.603759 
L 178.851041 456.362906 
L 179.05161 456.212716 
L 179.452748 456.072692 
L 179.853886 455.767904 
L 180.656163 455.231095 
L 180.856732 455.134522 
L 185.068684 452.711171 
L 185.570106 452.426876 
L 185.87096 452.236032 
L 186.372383 451.964648 
L 186.873806 451.526738 
L 187.074375 451.428026 
L 187.475513 451.260939 
L 187.876651 450.915764 
L 188.678928 450.492449 
L 189.982627 449.787983 
L 190.283481 449.585659 
L 190.885188 449.325633 
L 191.085757 449.157352 
L 191.186042 449.152829 
L 191.486895 448.909369 
L 191.888034 448.677496 
L 192.69031 448.207043 
L 192.991164 447.99072 
L 193.893725 447.502901 
L 194.194578 447.248556 
L 194.595717 447.03505 
L 194.89657 446.828786 
L 195.097139 446.680946 
L 197.3034 445.26932 
L 197.503969 445.147235 
L 197.804823 445.006883 
L 198.607099 444.499857 
L 198.707384 444.495533 
L 199.108522 444.169795 
L 199.710229 443.887321 
L 200.011083 443.647322 
L 200.512506 443.418721 
L 200.713075 443.256609 
L 201.114213 443.059762 
L 201.415067 442.808109 
L 202.117059 442.39259 
L 202.417912 442.165741 
L 203.01962 441.799924 
L 203.320473 441.646157 
L 203.721612 441.439271 
L 204.925026 440.709441 
L 205.025311 440.705108 
L 205.326164 440.474742 
L 205.727303 440.300232 
L 206.228725 439.945454 
L 206.529579 439.81014 
L 206.930717 439.449639 
L 207.331856 439.251238 
L 211.142669 436.865085 
L 211.343238 436.732833 
L 212.646937 435.918884 
L 212.847506 435.78281 
L 213.248645 435.627911 
L 213.649783 435.232792 
L 213.950637 435.177295 
L 214.25149 434.945164 
L 214.351775 434.93838 
L 214.552344 434.801822 
L 214.752913 434.651498 
L 214.953482 434.515671 
L 215.254336 434.35526 
L 215.856043 434.032422 
L 222.875962 429.648001 
L 223.176816 429.500302 
L 233.405841 423.173652 
L 233.506126 423.170436 
L 233.907264 422.854601 
L 235.612101 421.946069 
L 236.414378 421.118515 
L 236.715231 420.998383 
L 237.11637 420.701414 
L 237.216654 420.696689 
L 237.417223 420.571284 
L 237.818362 420.342649 
L 238.2195 420.099444 
L 238.520353 419.900302 
L 238.821207 419.711252 
L 239.021776 419.569673 
L 239.32263 419.395421 
L 239.723768 419.15657 
L 240.024622 418.984773 
L 240.225191 418.850973 
L 240.526045 418.705823 
L 240.726614 418.536105 
L 240.927183 418.405818 
L 242.431451 417.495054 
L 242.63202 417.356175 
L 243.233728 416.993613 
L 243.634866 416.65295 
L 243.93572 416.575653 
L 246.14198 415.15411 
L 246.442834 415.019104 
L 247.24511 414.525801 
L 247.646248 414.337294 
L 247.947102 414.082311 
L 248.448525 413.79199 
L 249.752224 412.930647 
L 250.053078 412.695362 
L 250.454216 412.472276 
L 251.356777 411.929447 
L 251.657631 411.66505 
L 251.8582 411.514023 
L 252.259338 411.285345 
L 252.96133 410.849069 
L 253.161899 410.710439 
L 254.365314 409.623459 
L 254.766452 409.201931 
L 254.866737 409.201251 
L 255.568728 408.475282 
L 255.769298 408.443545 
L 256.070151 408.204228 
L 256.371005 408.103857 
L 256.671859 407.886526 
L 257.072997 407.678347 
L 257.373851 407.438798 
L 258.276412 406.954875 
L 258.577265 406.755996 
L 263.09007 404.081516 
L 263.29064 403.931923 
L 263.591493 403.837977 
L 263.892347 403.568367 
L 264.092916 403.465226 
L 264.39377 403.309268 
L 264.794908 402.982237 
L 266.499745 401.90663 
L 266.60003 401.903399 
L 266.900884 401.624834 
L 267.101453 401.523661 
L 267.602876 401.260653 
L 268.004014 401.032221 
L 268.405152 400.799082 
L 268.706006 400.610473 
L 269.006859 400.503929 
L 269.307713 400.306993 
L 274.121372 397.856799 
L 274.422226 397.631764 
L 274.622795 397.490895 
L 275.324787 397.139555 
L 275.725925 396.830352 
L 276.026778 396.72634 
L 276.327632 396.529569 
L 276.72877 396.325404 
L 277.129909 396.009592 
L 278.834746 395.115631 
L 278.935031 395.115631 
L 279.336169 394.765206 
L 279.536738 394.635808 
L 280.138445 394.29645 
L 280.339015 394.125947 
L 280.740153 393.981363 
L 281.041006 393.767453 
L 281.742998 393.294246 
L 281.943567 393.20263 
L 282.846129 392.69011 
L 283.046698 392.555487 
L 283.447836 392.182541 
L 283.74869 392.029102 
L 284.250112 391.695187 
L 284.550966 391.523523 
L 285.353242 391.046893 
L 285.654096 390.858602 
L 285.95495 390.709325 
L 286.356088 390.400367 
L 287.158365 389.979903 
L 287.459218 389.78637 
L 287.760072 389.630941 
L 288.361779 389.178011 
L 288.662633 389.020406 
L 289.26434 388.667488 
L 289.866048 388.264946 
L 290.36747 387.935251 
L 290.668324 387.76489 
L 290.969178 387.540273 
L 291.270031 387.377946 
L 291.67117 387.159659 
L 292.373162 386.752678 
L 292.874584 386.465305 
L 293.576576 385.940907 
L 296.785682 384.028783 
L 297.18682 383.703564 
L 297.38739 383.570084 
L 297.989097 383.290189 
L 298.089381 383.290189 
L 298.590804 382.820504 
L 298.691089 382.816836 
L 298.891658 382.645331 
L 299.092227 382.507394 
L 299.393081 382.360822 
L 299.994788 381.931589 
L 300.295642 381.823666 
L 300.69678 381.528272 
L 300.897349 381.446754 
L 301.198203 381.181724 
L 301.499056 381.100121 
L 301.699626 380.948143 
L 302.100764 380.735227 
L 302.501902 380.376761 
L 310.223813 375.636313 
L 310.524667 375.455645 
L 310.925805 375.292762 
L 311.226659 375.05738 
L 311.427228 374.908464 
L 311.728081 374.736251 
L 312.12922 374.468583 
L 312.329789 374.303098 
L 312.630643 374.12342 
L 313.332634 373.70107 
L 313.533204 373.536191 
L 313.834057 373.386437 
L 314.536049 372.911272 
L 315.338326 372.416558 
L 316.040318 371.963314 
L 316.742309 371.663932 
L 317.043163 371.411463 
L 317.544586 371.146008 
L 317.945724 370.816001 
L 318.246578 370.671244 
L 318.748001 370.29062 
L 319.048854 370.023437 
L 319.149139 370.016112 
L 319.449993 369.809489 
L 320.0517 369.521272 
L 320.151984 369.521272 
L 320.553123 369.157314 
L 320.954261 368.990405 
L 321.255115 368.797247 
L 322.157676 368.287043 
L 322.558814 367.927953 
L 322.859668 367.77636 
L 323.962798 367.139209 
L 324.263651 366.975232 
L 324.564505 366.695533 
L 324.965643 366.543364 
L 325.266497 366.289 
L 325.366781 366.289 
L 325.76792 365.940516 
L 325.968489 365.786822 
L 326.369627 365.457079 
L 326.469912 365.451425 
L 326.770765 365.246543 
L 326.87105 365.246543 
L 327.272188 364.915814 
L 327.573042 364.799121 
L 327.873895 364.592352 
L 328.275034 364.389977 
L 328.676172 364.1105 
L 328.776456 364.10244 
L 329.07731 363.900773 
L 331.784993 362.15762 
L 332.085847 361.959551 
L 332.687554 361.586325 
L 332.988408 361.414607 
L 333.289262 361.23358 
L 333.489831 361.086801 
L 333.790684 360.805854 
L 334.292107 360.596441 
L 334.592961 360.336579 
L 334.79353 360.225469 
L 337.400929 358.598053 
L 337.601498 358.432891 
L 337.701782 358.42811 
L 338.10292 358.055558 
L 338.504059 357.886983 
L 338.804912 357.593678 
L 338.905197 357.583213 
L 339.40662 357.084966 
L 339.607189 357.044737 
L 339.807758 356.878421 
L 340.108612 356.722573 
L 341.211742 355.968722 
L 341.412311 355.838269 
L 343.618571 354.385024 
L 343.919425 354.134377 
L 345.523978 353.193761 
L 345.724547 353.0506 
L 346.526823 352.606787 
L 346.927962 352.279351 
L 347.3291 351.983572 
L 347.629954 351.798551 
L 347.930807 351.583856 
L 351.139913 349.581967 
L 351.641336 349.210447 
L 352.042474 349.028836 
L 352.343328 348.812805 
L 353.04532 348.311712 
L 353.245889 348.238302 
L 363.976337 341.370187 
L 364.377475 341.035232 
L 364.578044 340.899392 
L 364.979182 340.634074 
L 365.280036 340.499678 
L 365.781459 340.161257 
L 365.982028 340.012135 
L 366.383166 339.638743 
L 366.68402 339.522 
L 366.884589 339.329851 
L 366.984873 339.321174 
L 367.185443 339.178643 
L 367.285727 339.1678 
L 367.586581 338.919949 
L 367.887434 338.750883 
L 368.088004 338.58155 
L 368.288573 338.439346 
L 368.89028 338.03343 
L 369.191134 337.906302 
L 370.193979 337.255322 
L 370.294264 337.24607 
L 370.494833 337.094314 
L 370.895971 336.886876 
L 371.09654 336.737568 
L 371.397394 336.557071 
L 371.698248 336.316446 
L 373.603654 335.081316 
L 373.804223 334.953131 
L 374.506215 334.531675 
L 374.807069 334.272664 
L 375.007638 334.128103 
L 375.70963 333.687484 
L 376.010484 333.461407 
L 376.110768 333.451308 
L 376.311337 333.304986 
L 376.411622 333.291745 
L 376.612191 333.133554 
L 376.81276 332.974184 
L 377.91589 332.293158 
L 378.116459 332.151002 
L 378.216744 332.137633 
L 378.718167 331.631341 
L 378.918736 331.562595 
L 380.122151 330.739177 
L 380.523289 330.357107 
L 380.723858 330.278128 
L 381.024712 330.030654 
L 381.124996 330.023123 
L 381.325565 329.89326 
L 382.428696 329.206937 
L 382.729549 329.051342 
L 383.030403 328.817602 
L 383.230972 328.817602 
L 383.63211 328.393731 
L 384.033248 328.257246 
L 384.334102 328.03921 
L 385.336948 327.446175 
L 385.838371 326.984951 
L 386.139224 326.853315 
L 386.339793 326.714724 
L 386.440078 326.714724 
L 386.740932 326.490848 
L 388.345484 325.368879 
L 388.445769 325.3669 
L 388.746623 325.078082 
L 389.047476 324.916119 
L 389.34833 324.670155 
L 389.649184 324.436153 
L 389.950037 324.321347 
L 390.150607 324.175577 
L 390.351176 323.998549 
L 390.752314 323.698626 
L 390.952883 323.582973 
L 391.153452 323.432844 
L 391.955729 322.857304 
L 392.156298 322.701876 
L 392.457151 322.524947 
L 392.557436 322.51494 
L 392.958574 322.162658 
L 393.259428 321.997516 
L 393.96142 321.555431 
L 394.161989 321.414995 
L 394.863981 321.021507 
L 395.06455 320.849712 
L 395.365404 320.775541 
L 395.866826 320.312035 
L 400.479916 317.318713 
L 400.981339 316.937883 
L 401.081623 316.930137 
L 401.382477 316.691331 
L 402.184754 316.215806 
L 402.585892 315.928987 
L 402.786461 315.781553 
L 403.087315 315.588587 
L 403.388168 315.421304 
L 403.789307 315.167419 
L 405.093006 314.265992 
L 405.494144 313.923673 
L 406.095851 313.613037 
L 406.396705 313.400033 
L 406.597274 313.269397 
L 406.998412 313.090737 
L 407.399551 312.73171 
L 408.302112 312.238115 
L 408.602965 311.971102 
L 408.70325 311.964559 
L 409.004104 311.670425 
L 409.405242 311.457389 
L 410.307803 310.857022 
L 410.408087 310.851626 
L 410.809226 310.456558 
L 410.90951 310.452545 
L 411.110079 310.303984 
L 411.511218 310.128705 
L 411.812071 309.897919 
L 412.21321 309.717337 
L 412.614348 309.332754 
L 412.915201 309.146537 
L 436.582357 293.670414 
L 436.782926 293.517037 
L 441.396016 290.452857 
L 441.997724 290.084076 
L 443.301423 289.236856 
L 443.501992 289.130508 
L 444.003415 288.638439 
L 444.404553 288.477045 
L 444.605122 288.322223 
L 445.206829 287.992805 
L 445.507683 287.758579 
L 445.808537 287.578011 
L 446.10939 287.362888 
L 446.30996 287.21809 
L 447.613659 286.362681 
L 447.914513 286.085415 
L 448.115082 285.994671 
L 449.318496 285.236181 
L 449.61935 284.936701 
L 449.920204 284.811025 
L 450.221057 284.650711 
L 450.622196 284.375773 
L 450.923049 284.211862 
L 452.026179 283.480905 
L 452.327033 283.238506 
L 452.828456 282.875559 
L 453.430163 282.68471 
L 453.831301 282.324095 
L 454.132155 282.164639 
L 454.433009 281.935188 
L 454.834147 281.658338 
L 456.639269 280.416708 
L 457.040407 280.085565 
L 457.341261 279.916948 
L 457.842684 279.639264 
L 458.143538 279.397156 
L 458.444391 279.203188 
L 458.745245 278.999072 
L 459.046099 278.68028 
L 459.146383 278.67659 
L 459.547521 278.29092 
L 459.74809 278.276259 
L 459.94866 278.136489 
L 460.048944 278.12429 
L 460.450082 277.782485 
L 460.750936 277.619896 
L 461.05179 277.358994 
L 461.152074 277.344726 
L 461.553213 277.009629 
L 461.854066 276.800844 
L 462.054635 276.65153 
L 462.656343 276.377961 
L 462.856912 276.244079 
L 467.068863 273.588121 
L 467.169148 273.588121 
L 467.670571 273.063083 
L 467.770855 273.059444 
L 468.171993 272.717665 
L 468.272278 272.703175 
L 468.472847 272.562344 
L 468.773701 272.387689 
L 468.97427 272.235902 
L 469.275124 272.069159 
L 469.776546 271.642303 
L 470.177685 271.440765 
L 470.478538 271.211577 
L 470.679107 271.040708 
L 470.979961 270.834678 
L 471.080246 270.830748 
L 471.381099 270.574143 
L 472.183376 270.134251 
L 472.484229 269.839314 
L 472.785083 269.709257 
L 472.985652 269.57181 
L 473.988498 268.849099 
L 474.189067 268.721604 
L 474.489921 268.515529 
L 475.392482 267.936846 
L 475.593051 267.781578 
L 476.094474 267.54287 
L 476.395327 267.372262 
L 476.696181 267.075855 
L 476.796465 267.070653 
L 476.997035 266.931454 
L 481.810693 263.803697 
L 482.011263 263.648741 
L 482.512685 263.344877 
L 482.813539 263.095215 
L 483.114393 262.907003 
L 483.314962 262.762643 
L 485.120084 261.64842 
L 485.521222 261.310971 
L 485.822076 261.118822 
L 486.122929 260.947803 
L 486.223214 260.947803 
L 486.624352 260.577448 
L 487.02549 260.357794 
L 487.326344 260.137835 
L 487.827767 259.728798 
L 488.128621 259.515871 
L 488.630043 259.196113 
L 489.332035 258.767369 
L 489.632889 258.536521 
L 490.334881 258.08141 
L 490.635735 257.809622 
L 490.836304 257.758826 
L 491.137157 257.510822 
L 491.538296 257.346589 
L 491.839149 257.104502 
L 493.744556 255.900514 
L 493.945125 255.765223 
L 494.647117 255.180557 
L 495.449393 254.57856 
L 495.850532 254.419363 
L 496.151385 254.203672 
L 497.154231 253.549065 
L 497.555369 253.207456 
L 497.655654 253.202781 
L 497.856223 253.08056 
L 498.157077 252.902521 
L 498.45793 252.677954 
L 499.260207 252.220112 
L 499.460776 252.033943 
L 499.761629 251.880208 
L 500.062483 251.68748 
L 500.162768 251.684958 
L 500.563906 251.306641 
L 508.386102 246.243205 
L 509.188378 245.644681 
L 509.388947 245.569402 
L 509.589516 245.452851 
L 509.990654 245.234591 
L 510.692646 244.717092 
L 511.494923 244.227349 
L 511.695492 244.070882 
L 511.795777 244.067825 
L 512.09663 243.863311 
L 512.898907 243.247213 
L 512.999191 243.233234 
L 513.500614 242.743655 
L 513.701183 242.645099 
L 514.302891 242.297613 
L 515.105167 241.869644 
L 515.406021 241.600834 
L 516.007728 241.24907 
L 516.308582 240.991751 
L 516.509151 240.925051 
L 517.211143 240.393677 
L 517.511996 240.260768 
L 517.913135 239.999647 
L 518.113704 239.825275 
L 518.414557 239.641863 
L 524.130777 235.902211 
L 524.431631 235.74156 
L 524.6322 235.564815 
L 524.732485 235.550387 
L 525.033338 235.28559 
L 536.866916 227.483611 
L 537.16777 227.32899 
L 537.468624 227.065354 
L 537.669193 227.005921 
L 538.2709 226.430186 
L 538.571754 226.313338 
L 538.772323 226.180662 
L 539.674884 225.597237 
L 539.975738 225.331792 
L 540.47716 225.116793 
L 540.878299 224.771457 
L 540.978583 224.763346 
L 541.379721 224.411054 
L 541.480006 224.411054 
L 541.881144 224.062686 
L 542.382567 223.814269 
L 542.783705 223.424732 
L 543.485697 222.996548 
L 543.786551 222.811533 
L 543.886835 222.798334 
L 544.187689 222.544951 
L 544.388258 222.44705 
L 544.689112 222.222139 
L 544.989966 222.010453 
L 545.190535 221.85977 
L 551.9096 217.453504 
L 552.110169 217.29338 
L 553.614438 216.2778 
L 553.714722 216.263674 
L 553.915291 216.109266 
L 554.015576 216.109266 
L 554.416714 215.756499 
L 554.918137 215.477066 
L 555.118706 215.329592 
L 555.720413 214.964822 
L 556.622974 214.370718 
L 556.823544 214.22318 
L 558.127243 213.462287 
L 558.428096 213.197671 
L 559.029804 212.83454 
L 559.330657 212.624559 
L 559.430942 212.623649 
L 559.932365 212.165002 
L 560.132934 212.081656 
L 561.336349 211.360486 
L 561.637202 211.154477 
L 562.840617 210.388268 
L 563.141471 210.146054 
L 563.241755 210.144662 
L 563.442324 209.971013 
L 563.743178 209.814701 
L 564.044032 209.542794 
L 564.44517 209.364473 
L 564.746024 209.104706 
L 565.448016 208.635167 
L 565.648585 208.477822 
L 565.849154 208.431212 
L 566.150007 208.209798 
L 566.250292 208.204209 
L 566.551146 207.934276 
L 566.65143 207.926466 
L 567.052569 207.573527 
L 567.453707 207.32029 
L 570.261674 205.538927 
L 570.662813 205.306859 
L 571.063951 204.95542 
L 571.26452 204.806235 
L 571.665658 204.572175 
L 572.167081 204.234092 
L 572.467935 203.994459 
L 572.668504 203.916628 
L 573.069642 203.714604 
L 573.47078 203.3557 
L 574.172772 202.897217 
L 574.57391 202.755372 
L 574.874764 202.471997 
L 574.975049 202.46854 
L 575.175618 202.298513 
L 575.275902 202.298513 
L 575.777325 201.830118 
L 575.977894 201.694011 
L 576.98074 200.993763 
L 577.381878 200.707355 
L 580.189846 198.967728 
L 580.490699 198.709929 
L 580.891838 198.538487 
L 581.192691 198.292343 
L 581.59383 198.036106 
L 582.195537 197.699989 
L 582.396106 197.554543 
L 582.496391 197.550993 
L 582.897529 197.181554 
L 589.51631 192.803112 
L 591.522001 191.461824 
L 591.622285 191.45896 
L 591.822855 191.295638 
L 592.023424 191.138542 
L 592.424562 190.880095 
L 593.026269 190.518308 
L 593.226838 190.396338 
L 593.327123 190.396338 
L 593.627977 190.100956 
L 593.828546 190.030491 
L 594.229684 189.727845 
L 595.132245 189.240329 
L 595.332814 189.058005 
L 595.533383 188.987191 
L 595.834237 188.720555 
L 596.435944 188.3886 
L 596.736798 188.145113 
L 596.837083 188.138898 
L 597.338505 187.675853 
L 599.043343 186.634849 
L 599.143627 186.628537 
L 599.64505 186.167232 
L 600.046188 185.940347 
L 600.347042 185.720991 
L 600.547611 185.574892 
L 602.152164 184.619841 
L 602.252449 184.604671 
L 602.653587 184.24172 
L 602.854156 184.126837 
L 603.15501 183.875228 
L 603.656433 183.611643 
L 603.957286 183.341456 
L 604.157855 183.20221 
L 607.366961 181.212237 
L 607.56753 181.020599 
L 607.667815 181.018952 
L 607.968669 180.795539 
L 608.068953 180.795539 
L 608.369807 180.503668 
L 608.570376 180.468562 
L 608.87123 180.212832 
L 617.696271 174.294297 
L 617.997124 174.031749 
L 618.598832 173.663768 
L 618.799401 173.520456 
L 619.100255 173.360313 
L 619.401108 173.091462 
L 619.802247 172.875078 
L 620.203385 172.53262 
L 620.704808 172.214509 
L 622.008507 171.460414 
L 622.209076 171.329681 
L 622.610214 171.004567 
L 622.911068 170.80118 
L 623.011352 170.80118 
L 623.211922 170.661921 
L 623.61306 170.467239 
L 623.913913 170.203219 
L 624.014198 170.201304 
L 624.515621 169.7057 
L 624.816474 169.56277 
L 625.117328 169.350969 
L 625.217613 169.349183 
L 625.418182 169.19591 
L 625.81932 168.949789 
L 626.120174 168.700452 
L 626.220458 168.698188 
L 626.521312 168.450928 
L 627.022735 168.219161 
L 627.423873 167.819237 
L 627.624442 167.789004 
L 627.825011 167.651746 
L 628.02558 167.496121 
L 628.326434 167.281009 
L 632.939524 164.16183 
L 633.140093 164.016973 
L 633.440947 163.8543 
L 633.842085 163.619352 
L 634.142938 163.451716 
L 634.644361 163.113659 
L 635.346353 162.61531 
L 635.546922 162.526922 
L 635.847776 162.323549 
L 636.349199 162.057807 
L 636.650052 161.790203 
L 637.051191 161.620203 
L 637.352044 161.348342 
L 637.652898 161.184151 
L 637.953752 160.974693 
L 643.669972 157.174296 
L 643.770256 157.171228 
L 644.07111 156.894811 
L 644.271679 156.741113 
L 644.672817 156.474501 
L 645.073955 156.33096 
L 645.475094 155.979989 
L 645.575378 155.967571 
L 645.876232 155.717384 
L 646.076801 155.700322 
L 646.377655 155.436342 
L 646.578224 155.357919 
L 646.879077 155.093021 
L 647.079647 154.947686 
L 647.581069 154.647574 
L 649.085338 153.674554 
L 649.486476 153.451076 
L 649.78733 153.209166 
L 650.188468 152.932171 
L 650.790175 152.531402 
L 650.990744 152.348371 
L 651.191313 152.306044 
L 651.492167 152.048842 
L 652.495013 151.402394 
L 653.197005 150.93944 
L 653.898997 150.473801 
L 665.933144 142.306037 
L 666.534851 141.865196 
L 666.635136 141.852813 
L 666.835705 141.692256 
L 666.935989 141.689393 
L 667.236843 141.407296 
L 667.337127 141.401728 
L 667.537697 141.2463 
L 667.83855 141.092854 
L 668.039119 140.929573 
L 668.139404 140.929573 
L 668.540542 140.593079 
L 671.147941 138.921156 
L 671.649363 138.632355 
L 672.351355 138.157831 
L 672.45164 138.146438 
L 672.652209 138.015484 
L 673.354201 137.605163 
L 673.55477 137.445442 
L 673.855624 137.313625 
L 674.156477 137.02649 
L 674.357047 136.879713 
L 674.758185 136.555536 
L 674.858469 136.543047 
L 675.259608 136.195774 
L 675.560461 136.114921 
L 675.861315 135.889769 
L 676.663591 135.353971 
L 676.864161 135.222313 
L 677.967291 134.562865 
L 678.16786 134.388351 
L 678.368429 134.232481 
L 678.568998 134.118477 
L 678.669283 134.114171 
L 678.869852 133.946752 
L 679.170705 133.785605 
L 679.471559 133.542581 
L 679.571844 133.541917 
L 679.972982 133.180436 
L 680.273836 133.016435 
L 680.674974 132.682038 
L 680.875543 132.537296 
L 681.677819 132.06481 
L 681.978673 131.846692 
L 682.379811 131.691488 
L 682.881234 131.180753 
L 683.081803 131.175953 
L 683.382657 130.869949 
L 683.783795 130.709833 
L 684.184933 130.365819 
L 684.886925 130.005007 
L 684.98721 130.003494 
L 685.388348 129.661338 
L 685.588917 129.511663 
L 686.391194 128.987382 
L 686.692047 128.809284 
L 687.494324 128.2862 
L 687.995747 127.924346 
L 688.2966 127.695222 
L 688.396885 127.691171 
L 688.697739 127.424921 
L 689.098877 127.139953 
L 689.299446 126.986149 
L 689.700584 126.769255 
L 690.001438 126.531922 
L 691.405422 125.726566 
L 691.605991 125.562529 
L 691.906844 125.388451 
L 692.90969 124.714807 
L 693.110259 124.570439 
L 693.411113 124.400785 
L 693.812251 124.005866 
L 694.213389 123.884224 
L 694.614527 123.509098 
L 694.714812 123.504728 
L 694.915381 123.337293 
L 695.11595 123.18972 
L 695.918227 122.736864 
L 696.118796 122.591985 
L 696.41965 122.367295 
L 697.322211 121.807052 
L 697.422495 121.807052 
L 697.723349 121.520891 
L 697.923918 121.375755 
L 698.425341 121.006465 
L 698.525625 120.999706 
L 698.826479 120.781541 
L 699.127333 120.612179 
L 699.428186 120.349379 
L 699.72904 120.247188 
L 700.130178 119.892347 
L 700.631601 119.564621 
L 700.83217 119.419016 
L 700.932455 119.419016 
L 701.233308 119.107159 
L 701.433877 119.057364 
L 701.634447 118.92252 
L 701.734731 118.911961 
L 701.9353 118.77878 
L 702.035585 118.771025 
L 702.537008 118.298286 
L 703.03843 117.960841 
L 703.138715 117.952695 
L 703.439569 117.736266 
L 703.840707 117.493799 
L 704.241845 117.156594 
L 705.044122 116.613545 
L 705.244691 116.541537 
L 705.44526 116.369999 
L 705.746114 116.260349 
L 706.247536 115.796058 
L 706.347821 115.782584 
L 706.54839 115.64274 
L 706.849244 115.484049 
L 707.049813 115.338347 
L 707.150097 115.334559 
L 707.450951 115.054764 
L 707.751805 114.941038 
L 708.052658 114.658895 
L 708.654366 114.329255 
L 708.955219 114.11524 
L 709.657211 113.689996 
L 710.158634 113.185144 
L 710.359203 113.080672 
L 711.261764 112.541011 
L 711.462333 112.384281 
L 711.863472 112.093155 
L 712.364894 111.844574 
L 712.766033 111.565174 
L 713.066886 111.400301 
L 713.468025 111.131384 
L 713.768878 110.976567 
L 714.972293 110.187399 
L 715.373431 109.835808 
L 715.674285 109.755702 
L 715.975139 109.474336 
L 716.075423 109.460487 
L 716.376277 109.237296 
L 717.078269 108.747798 
L 717.579691 108.457644 
L 717.780261 108.442876 
L 718.181399 108.094753 
L 718.682822 107.668661 
L 718.983675 107.54139 
L 719.284529 107.275985 
L 720.487944 106.468614 
L 720.788797 106.300704 
L 721.189936 106.055317 
L 721.490789 105.79717 
L 721.791643 105.659826 
L 722.092497 105.396825 
L 722.39335 105.250569 
L 723.396196 104.627618 
L 723.49648 104.620293 
L 723.797334 104.377057 
L 723.897619 104.363961 
L 724.198472 104.07081 
L 724.298757 104.061991 
L 724.499326 103.923043 
L 724.699895 103.756501 
L 725.101033 103.462569 
L 725.401887 103.299927 
L 728.811562 101.004905 
L 729.012131 100.974012 
L 729.513554 100.512625 
L 729.714123 100.444914 
L 730.014977 100.186879 
L 731.017822 99.54516 
L 731.61953 99.170543 
L 732.020668 99.001731 
L 732.221237 98.862971 
L 732.321522 98.860763 
L 732.72266 98.477353 
L 733.224083 98.337742 
L 733.725505 97.860691 
L 734.226928 97.460021 
L 734.327213 97.450891 
L 734.728351 97.111702 
L 735.029205 96.917075 
L 735.330058 96.769864 
L 735.530628 96.616617 
L 735.731197 96.461862 
L 736.03205 96.286075 
L 736.633758 95.92991 
L 736.834327 95.800366 
L 737.235465 95.526533 
L 737.436034 95.379975 
L 737.636603 95.212216 
L 737.837172 95.080463 
L 738.037742 94.924102 
L 739.040587 94.295167 
L 739.241156 94.098052 
L 739.341441 94.093972 
L 739.54201 93.914518 
L 739.642294 93.902253 
L 739.943148 93.6688 
L 740.043433 93.66813 
L 740.344286 93.395724 
L 740.64514 93.210758 
L 741.848555 92.381755 
L 741.948839 92.377096 
L 742.249693 92.144853 
L 745.859937 89.877162 
L 745.960222 89.877162 
L 746.461644 89.403253 
L 746.762498 89.192685 
L 746.862783 89.191099 
L 747.163636 88.887273 
L 747.163636 88.887273 
" style="fill:none;stroke:#1f77b4;stroke-linecap:square;stroke-width:1.5;"/>
   </g>
   <g id="line2d_14">
    <path clip-path="url(#p7e07a33c00)" d="M 138.436364 484.232727 
L 150.269942 476.792253 
L 165.212341 467.639186 
L 179.553033 459.108031 
L 235.81267 425.723404 
L 235.912955 425.543958 
L 296.284259 389.42921 
L 333.590115 366.675259 
L 364.678329 347.171372 
L 540.376876 234.894186 
L 747.163636 102.759366 
L 747.163636 102.759366 
" style="fill:none;stroke:#ff7f0e;stroke-linecap:square;stroke-width:1.5;"/>
   </g>
   <g id="patch_3">
    <path d="M 108 504 
L 108 69.12 
" style="fill:none;stroke:#000000;stroke-linecap:square;stroke-linejoin:miter;stroke-width:0.8;"/>
   </g>
   <g id="patch_4">
    <path d="M 777.6 504 
L 777.6 69.12 
" style="fill:none;stroke:#000000;stroke-linecap:square;stroke-linejoin:miter;stroke-width:0.8;"/>
   </g>
   <g id="patch_5">
    <path d="M 108 504 
L 777.6 504 
" style="fill:none;stroke:#000000;stroke-linecap:square;stroke-linejoin:miter;stroke-width:0.8;"/>
   </g>
   <g id="patch_6">
    <path d="M 108 69.12 
L 777.6 69.12 
" style="fill:none;stroke:#000000;stroke-linecap:square;stroke-linejoin:miter;stroke-width:0.8;"/>
   </g>
   <g id="legend_1">
    <g id="patch_7">
     <path d="M 115 106.47625 
L 257.039062 106.47625 
Q 259.039062 106.47625 259.039062 104.47625 
L 259.039062 76.12 
Q 259.039062 74.12 257.039062 74.12 
L 115 74.12 
Q 113 74.12 113 76.12 
L 113 104.47625 
Q 113 106.47625 115 106.47625 
z
" style="fill:#ffffff;opacity:0.8;stroke:#cccccc;stroke-linejoin:miter;"/>
    </g>
    <g id="line2d_15">
     <path d="M 117 82.218437 
L 137 82.218437 
" style="fill:none;stroke:#1f77b4;stroke-linecap:square;stroke-width:1.5;"/>
    </g>
    <g id="line2d_16"/>
    <g id="text_16">
     <!-- cumulative gas used -->
     <g transform="translate(145 85.718437)scale(0.1 -0.1)">
      <defs>
       <path d="M 8.5 21.578125 
L 8.5 54.6875 
L 17.484375 54.6875 
L 17.484375 21.921875 
Q 17.484375 14.15625 20.5 10.265625 
Q 23.53125 6.390625 29.59375 6.390625 
Q 36.859375 6.390625 41.078125 11.03125 
Q 45.3125 15.671875 45.3125 23.6875 
L 45.3125 54.6875 
L 54.296875 54.6875 
L 54.296875 0 
L 45.3125 0 
L 45.3125 8.40625 
Q 42.046875 3.421875 37.71875 1 
Q 33.40625 -1.421875 27.6875 -1.421875 
Q 18.265625 -1.421875 13.375 4.4375 
Q 8.5 10.296875 8.5 21.578125 
z
M 31.109375 56 
z
" id="DejaVuSans-117"/>
       <path d="M 52 44.1875 
Q 55.375 50.25 60.0625 53.125 
Q 64.75 56 71.09375 56 
Q 79.640625 56 84.28125 50.015625 
Q 88.921875 44.046875 88.921875 33.015625 
L 88.921875 0 
L 79.890625 0 
L 79.890625 32.71875 
Q 79.890625 40.578125 77.09375 44.375 
Q 74.3125 48.1875 68.609375 48.1875 
Q 61.625 48.1875 57.5625 43.546875 
Q 53.515625 38.921875 53.515625 30.90625 
L 53.515625 0 
L 44.484375 0 
L 44.484375 32.71875 
Q 44.484375 40.625 41.703125 44.40625 
Q 38.921875 48.1875 33.109375 48.1875 
Q 26.21875 48.1875 22.15625 43.53125 
Q 18.109375 38.875 18.109375 30.90625 
L 18.109375 0 
L 9.078125 0 
L 9.078125 54.6875 
L 18.109375 54.6875 
L 18.109375 46.1875 
Q 21.1875 51.21875 25.484375 53.609375 
Q 29.78125 56 35.6875 56 
Q 41.65625 56 45.828125 52.96875 
Q 50 49.953125 52 44.1875 
z
" id="DejaVuSans-109"/>
       <path d="M 34.28125 27.484375 
Q 23.390625 27.484375 19.1875 25 
Q 14.984375 22.515625 14.984375 16.5 
Q 14.984375 11.71875 18.140625 8.90625 
Q 21.296875 6.109375 26.703125 6.109375 
Q 34.1875 6.109375 38.703125 11.40625 
Q 43.21875 16.703125 43.21875 25.484375 
L 43.21875 27.484375 
z
M 52.203125 31.203125 
L 52.203125 0 
L 43.21875 0 
L 43.21875 8.296875 
Q 40.140625 3.328125 35.546875 0.953125 
Q 30.953125 -1.421875 24.3125 -1.421875 
Q 15.921875 -1.421875 10.953125 3.296875 
Q 6 8.015625 6 15.921875 
Q 6 25.140625 12.171875 29.828125 
Q 18.359375 34.515625 30.609375 34.515625 
L 43.21875 34.515625 
L 43.21875 35.40625 
Q 43.21875 41.609375 39.140625 45 
Q 35.0625 48.390625 27.6875 48.390625 
Q 23 48.390625 18.546875 47.265625 
Q 14.109375 46.140625 10.015625 43.890625 
L 10.015625 52.203125 
Q 14.9375 54.109375 19.578125 55.046875 
Q 24.21875 56 28.609375 56 
Q 40.484375 56 46.34375 49.84375 
Q 52.203125 43.703125 52.203125 31.203125 
z
" id="DejaVuSans-97"/>
       <path d="M 18.3125 70.21875 
L 18.3125 54.6875 
L 36.8125 54.6875 
L 36.8125 47.703125 
L 18.3125 47.703125 
L 18.3125 18.015625 
Q 18.3125 11.328125 20.140625 9.421875 
Q 21.96875 7.515625 27.59375 7.515625 
L 36.8125 7.515625 
L 36.8125 0 
L 27.59375 0 
Q 17.1875 0 13.234375 3.875 
Q 9.28125 7.765625 9.28125 18.015625 
L 9.28125 47.703125 
L 2.6875 47.703125 
L 2.6875 54.6875 
L 9.28125 54.6875 
L 9.28125 70.21875 
z
" id="DejaVuSans-116"/>
       <path d="M 9.421875 54.6875 
L 18.40625 54.6875 
L 18.40625 0 
L 9.421875 0 
z
M 9.421875 75.984375 
L 18.40625 75.984375 
L 18.40625 64.59375 
L 9.421875 64.59375 
z
" id="DejaVuSans-105"/>
       <path d="M 2.984375 54.6875 
L 12.5 54.6875 
L 29.59375 8.796875 
L 46.6875 54.6875 
L 56.203125 54.6875 
L 35.6875 0 
L 23.484375 0 
z
" id="DejaVuSans-118"/>
       <path id="DejaVuSans-32"/>
       <path d="M 45.40625 27.984375 
Q 45.40625 37.75 41.375 43.109375 
Q 37.359375 48.484375 30.078125 48.484375 
Q 22.859375 48.484375 18.828125 43.109375 
Q 14.796875 37.75 14.796875 27.984375 
Q 14.796875 18.265625 18.828125 12.890625 
Q 22.859375 7.515625 30.078125 7.515625 
Q 37.359375 7.515625 41.375 12.890625 
Q 45.40625 18.265625 45.40625 27.984375 
z
M 54.390625 6.78125 
Q 54.390625 -7.171875 48.1875 -13.984375 
Q 42 -20.796875 29.203125 -20.796875 
Q 24.46875 -20.796875 20.265625 -20.09375 
Q 16.0625 -19.390625 12.109375 -17.921875 
L 12.109375 -9.1875 
Q 16.0625 -11.328125 19.921875 -12.34375 
Q 23.78125 -13.375 27.78125 -13.375 
Q 36.625 -13.375 41.015625 -8.765625 
Q 45.40625 -4.15625 45.40625 5.171875 
L 45.40625 9.625 
Q 42.625 4.78125 38.28125 2.390625 
Q 33.9375 0 27.875 0 
Q 17.828125 0 11.671875 7.65625 
Q 5.515625 15.328125 5.515625 27.984375 
Q 5.515625 40.671875 11.671875 48.328125 
Q 17.828125 56 27.875 56 
Q 33.9375 56 38.28125 53.609375 
Q 42.625 51.21875 45.40625 46.390625 
L 45.40625 54.6875 
L 54.390625 54.6875 
z
" id="DejaVuSans-103"/>
       <path d="M 44.28125 53.078125 
L 44.28125 44.578125 
Q 40.484375 46.53125 36.375 47.5 
Q 32.28125 48.484375 27.875 48.484375 
Q 21.1875 48.484375 17.84375 46.4375 
Q 14.5 44.390625 14.5 40.28125 
Q 14.5 37.15625 16.890625 35.375 
Q 19.28125 33.59375 26.515625 31.984375 
L 29.59375 31.296875 
Q 39.15625 29.25 43.1875 25.515625 
Q 47.21875 21.78125 47.21875 15.09375 
Q 47.21875 7.46875 41.1875 3.015625 
Q 35.15625 -1.421875 24.609375 -1.421875 
Q 20.21875 -1.421875 15.453125 -0.5625 
Q 10.6875 0.296875 5.421875 2 
L 5.421875 11.28125 
Q 10.40625 8.6875 15.234375 7.390625 
Q 20.0625 6.109375 24.8125 6.109375 
Q 31.15625 6.109375 34.5625 8.28125 
Q 37.984375 10.453125 37.984375 14.40625 
Q 37.984375 18.0625 35.515625 20.015625 
Q 33.0625 21.96875 24.703125 23.78125 
L 21.578125 24.515625 
Q 13.234375 26.265625 9.515625 29.90625 
Q 5.8125 33.546875 5.8125 39.890625 
Q 5.8125 47.609375 11.28125 51.796875 
Q 16.75 56 26.8125 56 
Q 31.78125 56 36.171875 55.265625 
Q 40.578125 54.546875 44.28125 53.078125 
z
" id="DejaVuSans-115"/>
       <path d="M 45.40625 46.390625 
L 45.40625 75.984375 
L 54.390625 75.984375 
L 54.390625 0 
L 45.40625 0 
L 45.40625 8.203125 
Q 42.578125 3.328125 38.25 0.953125 
Q 33.9375 -1.421875 27.875 -1.421875 
Q 17.96875 -1.421875 11.734375 6.484375 
Q 5.515625 14.40625 5.515625 27.296875 
Q 5.515625 40.1875 11.734375 48.09375 
Q 17.96875 56 27.875 56 
Q 33.9375 56 38.25 53.625 
Q 42.578125 51.265625 45.40625 46.390625 
z
M 14.796875 27.296875 
Q 14.796875 17.390625 18.875 11.75 
Q 22.953125 6.109375 30.078125 6.109375 
Q 37.203125 6.109375 41.296875 11.75 
Q 45.40625 17.390625 45.40625 27.296875 
Q 45.40625 37.203125 41.296875 42.84375 
Q 37.203125 48.484375 30.078125 48.484375 
Q 22.953125 48.484375 18.875 42.84375 
Q 14.796875 37.203125 14.796875 27.296875 
z
" id="DejaVuSans-100"/>
      </defs>
      <use xlink:href="#DejaVuSans-99"/>
      <use x="54.980469" xlink:href="#DejaVuSans-117"/>
      <use x="118.359375" xlink:href="#DejaVuSans-109"/>
      <use x="215.771484" xlink:href="#DejaVuSans-117"/>
      <use x="279.150391" xlink:href="#DejaVuSans-108"/>
      <use x="306.933594" xlink:href="#DejaVuSans-97"/>
      <use x="368.212891" xlink:href="#DejaVuSans-116"/>
      <use x="407.421875" xlink:href="#DejaVuSans-105"/>
      <use x="435.205078" xlink:href="#DejaVuSans-118"/>
      <use x="494.384766" xlink:href="#DejaVuSans-101"/>
      <use x="555.908203" xlink:href="#DejaVuSans-32"/>
      <use x="587.695312" xlink:href="#DejaVuSans-103"/>
      <use x="651.171875" xlink:href="#DejaVuSans-97"/>
      <use x="712.451172" xlink:href="#DejaVuSans-115"/>
      <use x="764.550781" xlink:href="#DejaVuSans-32"/>
      <use x="796.337891" xlink:href="#DejaVuSans-117"/>
      <use x="859.716797" xlink:href="#DejaVuSans-115"/>
      <use x="911.816406" xlink:href="#DejaVuSans-101"/>
      <use x="973.339844" xlink:href="#DejaVuSans-100"/>
     </g>
    </g>
    <g id="line2d_17">
     <path d="M 117 96.896563 
L 137 96.896563 
" style="fill:none;stroke:#ff7f0e;stroke-linecap:square;stroke-width:1.5;"/>
    </g>
    <g id="line2d_18"/>
    <g id="text_17">
     <!-- cumulative target gas -->
     <g transform="translate(145 100.396563)scale(0.1 -0.1)">
      <defs>
       <path d="M 41.109375 46.296875 
Q 39.59375 47.171875 37.8125 47.578125 
Q 36.03125 48 33.890625 48 
Q 26.265625 48 22.1875 43.046875 
Q 18.109375 38.09375 18.109375 28.8125 
L 18.109375 0 
L 9.078125 0 
L 9.078125 54.6875 
L 18.109375 54.6875 
L 18.109375 46.1875 
Q 20.953125 51.171875 25.484375 53.578125 
Q 30.03125 56 36.53125 56 
Q 37.453125 56 38.578125 55.875 
Q 39.703125 55.765625 41.0625 55.515625 
z
" id="DejaVuSans-114"/>
      </defs>
      <use xlink:href="#DejaVuSans-99"/>
      <use x="54.980469" xlink:href="#DejaVuSans-117"/>
      <use x="118.359375" xlink:href="#DejaVuSans-109"/>
      <use x="215.771484" xlink:href="#DejaVuSans-117"/>
      <use x="279.150391" xlink:href="#DejaVuSans-108"/>
      <use x="306.933594" xlink:href="#DejaVuSans-97"/>
      <use x="368.212891" xlink:href="#DejaVuSans-116"/>
      <use x="407.421875" xlink:href="#DejaVuSans-105"/>
      <use x="435.205078" xlink:href="#DejaVuSans-118"/>
      <use x="494.384766" xlink:href="#DejaVuSans-101"/>
      <use x="555.908203" xlink:href="#DejaVuSans-32"/>
      <use x="587.695312" xlink:href="#DejaVuSans-116"/>
      <use x="626.904297" xlink:href="#DejaVuSans-97"/>
      <use x="688.183594" xlink:href="#DejaVuSans-114"/>
      <use x="727.546875" xlink:href="#DejaVuSans-103"/>
      <use x="791.023438" xlink:href="#DejaVuSans-101"/>
      <use x="852.546875" xlink:href="#DejaVuSans-116"/>
      <use x="891.755859" xlink:href="#DejaVuSans-32"/>
      <use x="923.542969" xlink:href="#DejaVuSans-103"/>
      <use x="987.019531" xlink:href="#DejaVuSans-97"/>
      <use x="1048.298828" xlink:href="#DejaVuSans-115"/>
     </g>
    </g>
   </g>
  </g>
 </g>
 <defs>
  <clipPath id="p7e07a33c00">
   <rect height="434.88" width="669.6" x="108" y="69.12"/>
  </clipPath>
 </defs>
</svg>
