<?xml version="1.0" encoding="utf-8" standalone="no"?>
<!DOCTYPE svg PUBLIC "-//W3C//DTD SVG 1.1//EN"
  "http://www.w3.org/Graphics/SVG/1.1/DTD/svg11.dtd">
<!-- Created with matplotlib (https://matplotlib.org/) -->
<svg height="576pt" version="1.1" viewBox="0 0 864 576" width="864pt" xmlns="http://www.w3.org/2000/svg" xmlns:xlink="http://www.w3.org/1999/xlink">
 <metadata>
  <rdf:RDF xmlns:cc="http://creativecommons.org/ns#" xmlns:dc="http://purl.org/dc/elements/1.1/" xmlns:rdf="http://www.w3.org/1999/02/22-rdf-syntax-ns#">
   <cc:Work>
    <dc:type rdf:resource="http://purl.org/dc/dcmitype/StillImage"/>
    <dc:date>2021-08-08T18:09:39.394938</dc:date>
    <dc:format>image/svg+xml</dc:format>
    <dc:creator>
     <cc:Agent>
      <dc:title>Matplotlib v3.3.2, https://matplotlib.org/</dc:title>
     </cc:Agent>
    </dc:creator>
   </cc:Work>
  </rdf:RDF>
 </metadata>
 <defs>
  <style type="text/css">*{stroke-linecap:butt;stroke-linejoin:round;}</style>
 </defs>
 <g id="figure_1">
  <g id="patch_1">
   <path d="M 0 576 
L 864 576 
L 864 0 
L 0 0 
z
" style="fill:none;"/>
  </g>
  <g id="axes_1">
   <g id="patch_2">
    <path d="M 108 504 
L 777.6 504 
L 777.6 69.12 
L 108 69.12 
z
" style="fill:#ffffff;"/>
   </g>
   <g id="matplotlib.axis_1">
    <g id="xtick_1">
     <g id="line2d_1">
      <defs>
       <path d="M 0 0 
L 0 3.5 
" id="m7cf65894c8" style="stroke:#000000;stroke-width:0.8;"/>
      </defs>
      <g>
       <use style="stroke:#000000;stroke-width:0.8;" x="138.436364" xlink:href="#m7cf65894c8" y="504"/>
      </g>
     </g>
     <g id="text_1">
      <!-- 1.29650 -->
      <g transform="translate(117.759801 518.598438)scale(0.1 -0.1)">
       <defs>
        <path d="M 12.40625 8.296875 
L 28.515625 8.296875 
L 28.515625 63.921875 
L 10.984375 60.40625 
L 10.984375 69.390625 
L 28.421875 72.90625 
L 38.28125 72.90625 
L 38.28125 8.296875 
L 54.390625 8.296875 
L 54.390625 0 
L 12.40625 0 
z
" id="DejaVuSans-49"/>
        <path d="M 10.6875 12.40625 
L 21 12.40625 
L 21 0 
L 10.6875 0 
z
" id="DejaVuSans-46"/>
        <path d="M 19.1875 8.296875 
L 53.609375 8.296875 
L 53.609375 0 
L 7.328125 0 
L 7.328125 8.296875 
Q 12.9375 14.109375 22.625 23.890625 
Q 32.328125 33.6875 34.8125 36.53125 
Q 39.546875 41.84375 41.421875 45.53125 
Q 43.3125 49.21875 43.3125 52.78125 
Q 43.3125 58.59375 39.234375 62.25 
Q 35.15625 65.921875 28.609375 65.921875 
Q 23.96875 65.921875 18.8125 64.3125 
Q 13.671875 62.703125 7.8125 59.421875 
L 7.8125 69.390625 
Q 13.765625 71.78125 18.9375 73 
Q 24.125 74.21875 28.421875 74.21875 
Q 39.75 74.21875 46.484375 68.546875 
Q 53.21875 62.890625 53.21875 53.421875 
Q 53.21875 48.921875 51.53125 44.890625 
Q 49.859375 40.875 45.40625 35.40625 
Q 44.1875 33.984375 37.640625 27.21875 
Q 31.109375 20.453125 19.1875 8.296875 
z
" id="DejaVuSans-50"/>
        <path d="M 10.984375 1.515625 
L 10.984375 10.5 
Q 14.703125 8.734375 18.5 7.8125 
Q 22.3125 6.890625 25.984375 6.890625 
Q 35.75 6.890625 40.890625 13.453125 
Q 46.046875 20.015625 46.78125 33.40625 
Q 43.953125 29.203125 39.59375 26.953125 
Q 35.25 24.703125 29.984375 24.703125 
Q 19.046875 24.703125 12.671875 31.3125 
Q 6.296875 37.9375 6.296875 49.421875 
Q 6.296875 60.640625 12.9375 67.421875 
Q 19.578125 74.21875 30.609375 74.21875 
Q 43.265625 74.21875 49.921875 64.515625 
Q 56.59375 54.828125 56.59375 36.375 
Q 56.59375 19.140625 48.40625 8.859375 
Q 40.234375 -1.421875 26.421875 -1.421875 
Q 22.703125 -1.421875 18.890625 -0.6875 
Q 15.09375 0.046875 10.984375 1.515625 
z
M 30.609375 32.421875 
Q 37.25 32.421875 41.125 36.953125 
Q 45.015625 41.5 45.015625 49.421875 
Q 45.015625 57.28125 41.125 61.84375 
Q 37.25 66.40625 30.609375 66.40625 
Q 23.96875 66.40625 20.09375 61.84375 
Q 16.21875 57.28125 16.21875 49.421875 
Q 16.21875 41.5 20.09375 36.953125 
Q 23.96875 32.421875 30.609375 32.421875 
z
" id="DejaVuSans-57"/>
        <path d="M 33.015625 40.375 
Q 26.375 40.375 22.484375 35.828125 
Q 18.609375 31.296875 18.609375 23.390625 
Q 18.609375 15.53125 22.484375 10.953125 
Q 26.375 6.390625 33.015625 6.390625 
Q 39.65625 6.390625 43.53125 10.953125 
Q 47.40625 15.53125 47.40625 23.390625 
Q 47.40625 31.296875 43.53125 35.828125 
Q 39.65625 40.375 33.015625 40.375 
z
M 52.59375 71.296875 
L 52.59375 62.3125 
Q 48.875 64.0625 45.09375 64.984375 
Q 41.3125 65.921875 37.59375 65.921875 
Q 27.828125 65.921875 22.671875 59.328125 
Q 17.53125 52.734375 16.796875 39.40625 
Q 19.671875 43.65625 24.015625 45.921875 
Q 28.375 48.1875 33.59375 48.1875 
Q 44.578125 48.1875 50.953125 41.515625 
Q 57.328125 34.859375 57.328125 23.390625 
Q 57.328125 12.15625 50.6875 5.359375 
Q 44.046875 -1.421875 33.015625 -1.421875 
Q 20.359375 -1.421875 13.671875 8.265625 
Q 6.984375 17.96875 6.984375 36.375 
Q 6.984375 53.65625 15.1875 63.9375 
Q 23.390625 74.21875 37.203125 74.21875 
Q 40.921875 74.21875 44.703125 73.484375 
Q 48.484375 72.75 52.59375 71.296875 
z
" id="DejaVuSans-54"/>
        <path d="M 10.796875 72.90625 
L 49.515625 72.90625 
L 49.515625 64.59375 
L 19.828125 64.59375 
L 19.828125 46.734375 
Q 21.96875 47.46875 24.109375 47.828125 
Q 26.265625 48.1875 28.421875 48.1875 
Q 40.625 48.1875 47.75 41.5 
Q 54.890625 34.8125 54.890625 23.390625 
Q 54.890625 11.625 47.5625 5.09375 
Q 40.234375 -1.421875 26.90625 -1.421875 
Q 22.3125 -1.421875 17.546875 -0.640625 
Q 12.796875 0.140625 7.71875 1.703125 
L 7.71875 11.625 
Q 12.109375 9.234375 16.796875 8.0625 
Q 21.484375 6.890625 26.703125 6.890625 
Q 35.15625 6.890625 40.078125 11.328125 
Q 45.015625 15.765625 45.015625 23.390625 
Q 45.015625 31 40.078125 35.4375 
Q 35.15625 39.890625 26.703125 39.890625 
Q 22.75 39.890625 18.8125 39.015625 
Q 14.890625 38.140625 10.796875 36.28125 
z
" id="DejaVuSans-53"/>
        <path d="M 31.78125 66.40625 
Q 24.171875 66.40625 20.328125 58.90625 
Q 16.5 51.421875 16.5 36.375 
Q 16.5 21.390625 20.328125 13.890625 
Q 24.171875 6.390625 31.78125 6.390625 
Q 39.453125 6.390625 43.28125 13.890625 
Q 47.125 21.390625 47.125 36.375 
Q 47.125 51.421875 43.28125 58.90625 
Q 39.453125 66.40625 31.78125 66.40625 
z
M 31.78125 74.21875 
Q 44.046875 74.21875 50.515625 64.515625 
Q 56.984375 54.828125 56.984375 36.375 
Q 56.984375 17.96875 50.515625 8.265625 
Q 44.046875 -1.421875 31.78125 -1.421875 
Q 19.53125 -1.421875 13.0625 8.265625 
Q 6.59375 17.96875 6.59375 36.375 
Q 6.59375 54.828125 13.0625 64.515625 
Q 19.53125 74.21875 31.78125 74.21875 
z
" id="DejaVuSans-48"/>
       </defs>
       <use xlink:href="#DejaVuSans-49"/>
       <use x="63.623047" xlink:href="#DejaVuSans-46"/>
       <use x="95.410156" xlink:href="#DejaVuSans-50"/>
       <use x="159.033203" xlink:href="#DejaVuSans-57"/>
       <use x="222.65625" xlink:href="#DejaVuSans-54"/>
       <use x="286.279297" xlink:href="#DejaVuSans-53"/>
       <use x="349.902344" xlink:href="#DejaVuSans-48"/>
      </g>
     </g>
    </g>
    <g id="xtick_2">
     <g id="line2d_2">
      <g>
       <use style="stroke:#000000;stroke-width:0.8;" x="215.701706" xlink:href="#m7cf65894c8" y="504"/>
      </g>
     </g>
     <g id="text_2">
      <!-- 1.29675 -->
      <g transform="translate(195.025143 518.598438)scale(0.1 -0.1)">
       <defs>
        <path d="M 8.203125 72.90625 
L 55.078125 72.90625 
L 55.078125 68.703125 
L 28.609375 0 
L 18.3125 0 
L 43.21875 64.59375 
L 8.203125 64.59375 
z
" id="DejaVuSans-55"/>
       </defs>
       <use xlink:href="#DejaVuSans-49"/>
       <use x="63.623047" xlink:href="#DejaVuSans-46"/>
       <use x="95.410156" xlink:href="#DejaVuSans-50"/>
       <use x="159.033203" xlink:href="#DejaVuSans-57"/>
       <use x="222.65625" xlink:href="#DejaVuSans-54"/>
       <use x="286.279297" xlink:href="#DejaVuSans-55"/>
       <use x="349.902344" xlink:href="#DejaVuSans-53"/>
      </g>
     </g>
    </g>
    <g id="xtick_3">
     <g id="line2d_3">
      <g>
       <use style="stroke:#000000;stroke-width:0.8;" x="292.967048" xlink:href="#m7cf65894c8" y="504"/>
      </g>
     </g>
     <g id="text_3">
      <!-- 1.29700 -->
      <g transform="translate(272.290486 518.598438)scale(0.1 -0.1)">
       <use xlink:href="#DejaVuSans-49"/>
       <use x="63.623047" xlink:href="#DejaVuSans-46"/>
       <use x="95.410156" xlink:href="#DejaVuSans-50"/>
       <use x="159.033203" xlink:href="#DejaVuSans-57"/>
       <use x="222.65625" xlink:href="#DejaVuSans-55"/>
       <use x="286.279297" xlink:href="#DejaVuSans-48"/>
       <use x="349.902344" xlink:href="#DejaVuSans-48"/>
      </g>
     </g>
    </g>
    <g id="xtick_4">
     <g id="line2d_4">
      <g>
       <use style="stroke:#000000;stroke-width:0.8;" x="370.232391" xlink:href="#m7cf65894c8" y="504"/>
      </g>
     </g>
     <g id="text_4">
      <!-- 1.29725 -->
      <g transform="translate(349.555828 518.598438)scale(0.1 -0.1)">
       <use xlink:href="#DejaVuSans-49"/>
       <use x="63.623047" xlink:href="#DejaVuSans-46"/>
       <use x="95.410156" xlink:href="#DejaVuSans-50"/>
       <use x="159.033203" xlink:href="#DejaVuSans-57"/>
       <use x="222.65625" xlink:href="#DejaVuSans-55"/>
       <use x="286.279297" xlink:href="#DejaVuSans-50"/>
       <use x="349.902344" xlink:href="#DejaVuSans-53"/>
      </g>
     </g>
    </g>
    <g id="xtick_5">
     <g id="line2d_5">
      <g>
       <use style="stroke:#000000;stroke-width:0.8;" x="447.497733" xlink:href="#m7cf65894c8" y="504"/>
      </g>
     </g>
     <g id="text_5">
      <!-- 1.29750 -->
      <g transform="translate(426.82117 518.598438)scale(0.1 -0.1)">
       <use xlink:href="#DejaVuSans-49"/>
       <use x="63.623047" xlink:href="#DejaVuSans-46"/>
       <use x="95.410156" xlink:href="#DejaVuSans-50"/>
       <use x="159.033203" xlink:href="#DejaVuSans-57"/>
       <use x="222.65625" xlink:href="#DejaVuSans-55"/>
       <use x="286.279297" xlink:href="#DejaVuSans-53"/>
       <use x="349.902344" xlink:href="#DejaVuSans-48"/>
      </g>
     </g>
    </g>
    <g id="xtick_6">
     <g id="line2d_6">
      <g>
       <use style="stroke:#000000;stroke-width:0.8;" x="524.763075" xlink:href="#m7cf65894c8" y="504"/>
      </g>
     </g>
     <g id="text_6">
      <!-- 1.29775 -->
      <g transform="translate(504.086513 518.598438)scale(0.1 -0.1)">
       <use xlink:href="#DejaVuSans-49"/>
       <use x="63.623047" xlink:href="#DejaVuSans-46"/>
       <use x="95.410156" xlink:href="#DejaVuSans-50"/>
       <use x="159.033203" xlink:href="#DejaVuSans-57"/>
       <use x="222.65625" xlink:href="#DejaVuSans-55"/>
       <use x="286.279297" xlink:href="#DejaVuSans-55"/>
       <use x="349.902344" xlink:href="#DejaVuSans-53"/>
      </g>
     </g>
    </g>
    <g id="xtick_7">
     <g id="line2d_7">
      <g>
       <use style="stroke:#000000;stroke-width:0.8;" x="602.028417" xlink:href="#m7cf65894c8" y="504"/>
      </g>
     </g>
     <g id="text_7">
      <!-- 1.29800 -->
      <g transform="translate(581.351855 518.598438)scale(0.1 -0.1)">
       <defs>
        <path d="M 31.78125 34.625 
Q 24.75 34.625 20.71875 30.859375 
Q 16.703125 27.09375 16.703125 20.515625 
Q 16.703125 13.921875 20.71875 10.15625 
Q 24.75 6.390625 31.78125 6.390625 
Q 38.8125 6.390625 42.859375 10.171875 
Q 46.921875 13.96875 46.921875 20.515625 
Q 46.921875 27.09375 42.890625 30.859375 
Q 38.875 34.625 31.78125 34.625 
z
M 21.921875 38.8125 
Q 15.578125 40.375 12.03125 44.71875 
Q 8.5 49.078125 8.5 55.328125 
Q 8.5 64.0625 14.71875 69.140625 
Q 20.953125 74.21875 31.78125 74.21875 
Q 42.671875 74.21875 48.875 69.140625 
Q 55.078125 64.0625 55.078125 55.328125 
Q 55.078125 49.078125 51.53125 44.71875 
Q 48 40.375 41.703125 38.8125 
Q 48.828125 37.15625 52.796875 32.3125 
Q 56.78125 27.484375 56.78125 20.515625 
Q 56.78125 9.90625 50.3125 4.234375 
Q 43.84375 -1.421875 31.78125 -1.421875 
Q 19.734375 -1.421875 13.25 4.234375 
Q 6.78125 9.90625 6.78125 20.515625 
Q 6.78125 27.484375 10.78125 32.3125 
Q 14.796875 37.15625 21.921875 38.8125 
z
M 18.3125 54.390625 
Q 18.3125 48.734375 21.84375 45.5625 
Q 25.390625 42.390625 31.78125 42.390625 
Q 38.140625 42.390625 41.71875 45.5625 
Q 45.3125 48.734375 45.3125 54.390625 
Q 45.3125 60.0625 41.71875 63.234375 
Q 38.140625 66.40625 31.78125 66.40625 
Q 25.390625 66.40625 21.84375 63.234375 
Q 18.3125 60.0625 18.3125 54.390625 
z
" id="DejaVuSans-56"/>
       </defs>
       <use xlink:href="#DejaVuSans-49"/>
       <use x="63.623047" xlink:href="#DejaVuSans-46"/>
       <use x="95.410156" xlink:href="#DejaVuSans-50"/>
       <use x="159.033203" xlink:href="#DejaVuSans-57"/>
       <use x="222.65625" xlink:href="#DejaVuSans-56"/>
       <use x="286.279297" xlink:href="#DejaVuSans-48"/>
       <use x="349.902344" xlink:href="#DejaVuSans-48"/>
      </g>
     </g>
    </g>
    <g id="xtick_8">
     <g id="line2d_8">
      <g>
       <use style="stroke:#000000;stroke-width:0.8;" x="679.29376" xlink:href="#m7cf65894c8" y="504"/>
      </g>
     </g>
     <g id="text_8">
      <!-- 1.29825 -->
      <g transform="translate(658.617197 518.598438)scale(0.1 -0.1)">
       <use xlink:href="#DejaVuSans-49"/>
       <use x="63.623047" xlink:href="#DejaVuSans-46"/>
       <use x="95.410156" xlink:href="#DejaVuSans-50"/>
       <use x="159.033203" xlink:href="#DejaVuSans-57"/>
       <use x="222.65625" xlink:href="#DejaVuSans-56"/>
       <use x="286.279297" xlink:href="#DejaVuSans-50"/>
       <use x="349.902344" xlink:href="#DejaVuSans-53"/>
      </g>
     </g>
    </g>
    <g id="xtick_9">
     <g id="line2d_9">
      <g>
       <use style="stroke:#000000;stroke-width:0.8;" x="756.559102" xlink:href="#m7cf65894c8" y="504"/>
      </g>
     </g>
     <g id="text_9">
      <!-- 1.29850 -->
      <g transform="translate(735.882539 518.598438)scale(0.1 -0.1)">
       <use xlink:href="#DejaVuSans-49"/>
       <use x="63.623047" xlink:href="#DejaVuSans-46"/>
       <use x="95.410156" xlink:href="#DejaVuSans-50"/>
       <use x="159.033203" xlink:href="#DejaVuSans-57"/>
       <use x="222.65625" xlink:href="#DejaVuSans-56"/>
       <use x="286.279297" xlink:href="#DejaVuSans-53"/>
       <use x="349.902344" xlink:href="#DejaVuSans-48"/>
      </g>
     </g>
    </g>
    <g id="text_10">
     <!-- block -->
     <g transform="translate(429.532813 532.276562)scale(0.1 -0.1)">
      <defs>
       <path d="M 48.6875 27.296875 
Q 48.6875 37.203125 44.609375 42.84375 
Q 40.53125 48.484375 33.40625 48.484375 
Q 26.265625 48.484375 22.1875 42.84375 
Q 18.109375 37.203125 18.109375 27.296875 
Q 18.109375 17.390625 22.1875 11.75 
Q 26.265625 6.109375 33.40625 6.109375 
Q 40.53125 6.109375 44.609375 11.75 
Q 48.6875 17.390625 48.6875 27.296875 
z
M 18.109375 46.390625 
Q 20.953125 51.265625 25.265625 53.625 
Q 29.59375 56 35.59375 56 
Q 45.5625 56 51.78125 48.09375 
Q 58.015625 40.1875 58.015625 27.296875 
Q 58.015625 14.40625 51.78125 6.484375 
Q 45.5625 -1.421875 35.59375 -1.421875 
Q 29.59375 -1.421875 25.265625 0.953125 
Q 20.953125 3.328125 18.109375 8.203125 
L 18.109375 0 
L 9.078125 0 
L 9.078125 75.984375 
L 18.109375 75.984375 
z
" id="DejaVuSans-98"/>
       <path d="M 9.421875 75.984375 
L 18.40625 75.984375 
L 18.40625 0 
L 9.421875 0 
z
" id="DejaVuSans-108"/>
       <path d="M 30.609375 48.390625 
Q 23.390625 48.390625 19.1875 42.75 
Q 14.984375 37.109375 14.984375 27.296875 
Q 14.984375 17.484375 19.15625 11.84375 
Q 23.34375 6.203125 30.609375 6.203125 
Q 37.796875 6.203125 41.984375 11.859375 
Q 46.1875 17.53125 46.1875 27.296875 
Q 46.1875 37.015625 41.984375 42.703125 
Q 37.796875 48.390625 30.609375 48.390625 
z
M 30.609375 56 
Q 42.328125 56 49.015625 48.375 
Q 55.71875 40.765625 55.71875 27.296875 
Q 55.71875 13.875 49.015625 6.21875 
Q 42.328125 -1.421875 30.609375 -1.421875 
Q 18.84375 -1.421875 12.171875 6.21875 
Q 5.515625 13.875 5.515625 27.296875 
Q 5.515625 40.765625 12.171875 48.375 
Q 18.84375 56 30.609375 56 
z
" id="DejaVuSans-111"/>
       <path d="M 48.78125 52.59375 
L 48.78125 44.1875 
Q 44.96875 46.296875 41.140625 47.34375 
Q 37.3125 48.390625 33.40625 48.390625 
Q 24.65625 48.390625 19.8125 42.84375 
Q 14.984375 37.3125 14.984375 27.296875 
Q 14.984375 17.28125 19.8125 11.734375 
Q 24.65625 6.203125 33.40625 6.203125 
Q 37.3125 6.203125 41.140625 7.25 
Q 44.96875 8.296875 48.78125 10.40625 
L 48.78125 2.09375 
Q 45.015625 0.34375 40.984375 -0.53125 
Q 36.96875 -1.421875 32.421875 -1.421875 
Q 20.0625 -1.421875 12.78125 6.34375 
Q 5.515625 14.109375 5.515625 27.296875 
Q 5.515625 40.671875 12.859375 48.328125 
Q 20.21875 56 33.015625 56 
Q 37.15625 56 41.109375 55.140625 
Q 45.0625 54.296875 48.78125 52.59375 
z
" id="DejaVuSans-99"/>
       <path d="M 9.078125 75.984375 
L 18.109375 75.984375 
L 18.109375 31.109375 
L 44.921875 54.6875 
L 56.390625 54.6875 
L 27.390625 29.109375 
L 57.625 0 
L 45.90625 0 
L 18.109375 26.703125 
L 18.109375 0 
L 9.078125 0 
z
" id="DejaVuSans-107"/>
      </defs>
      <use xlink:href="#DejaVuSans-98"/>
      <use x="63.476562" xlink:href="#DejaVuSans-108"/>
      <use x="91.259766" xlink:href="#DejaVuSans-111"/>
      <use x="152.441406" xlink:href="#DejaVuSans-99"/>
      <use x="207.421875" xlink:href="#DejaVuSans-107"/>
     </g>
    </g>
    <g id="text_11">
     <!-- 1e7 -->
     <g transform="translate(758.721875 531.276562)scale(0.1 -0.1)">
      <defs>
       <path d="M 56.203125 29.59375 
L 56.203125 25.203125 
L 14.890625 25.203125 
Q 15.484375 15.921875 20.484375 11.0625 
Q 25.484375 6.203125 34.421875 6.203125 
Q 39.59375 6.203125 44.453125 7.46875 
Q 49.3125 8.734375 54.109375 11.28125 
L 54.109375 2.78125 
Q 49.265625 0.734375 44.1875 -0.34375 
Q 39.109375 -1.421875 33.890625 -1.421875 
Q 20.796875 -1.421875 13.15625 6.1875 
Q 5.515625 13.8125 5.515625 26.8125 
Q 5.515625 40.234375 12.765625 48.109375 
Q 20.015625 56 32.328125 56 
Q 43.359375 56 49.78125 48.890625 
Q 56.203125 41.796875 56.203125 29.59375 
z
M 47.21875 32.234375 
Q 47.125 39.59375 43.09375 43.984375 
Q 39.0625 48.390625 32.421875 48.390625 
Q 24.90625 48.390625 20.390625 44.140625 
Q 15.875 39.890625 15.1875 32.171875 
z
" id="DejaVuSans-101"/>
      </defs>
      <use xlink:href="#DejaVuSans-49"/>
      <use x="63.623047" xlink:href="#DejaVuSans-101"/>
      <use x="125.146484" xlink:href="#DejaVuSans-55"/>
     </g>
    </g>
   </g>
   <g id="matplotlib.axis_2">
    <g id="ytick_1">
     <g id="line2d_10">
      <defs>
       <path d="M 0 0 
L -3.5 0 
" id="m1c910e90d5" style="stroke:#000000;stroke-width:0.8;"/>
      </defs>
      <g>
       <use style="stroke:#000000;stroke-width:0.8;" x="108" xlink:href="#m1c910e90d5" y="484.252274"/>
      </g>
     </g>
     <g id="text_12">
      <!-- 0.0 -->
      <g transform="translate(85.096875 488.051492)scale(0.1 -0.1)">
       <use xlink:href="#DejaVuSans-48"/>
       <use x="63.623047" xlink:href="#DejaVuSans-46"/>
       <use x="95.410156" xlink:href="#DejaVuSans-48"/>
      </g>
     </g>
    </g>
    <g id="ytick_2">
     <g id="line2d_11">
      <g>
       <use style="stroke:#000000;stroke-width:0.8;" x="108" xlink:href="#m1c910e90d5" y="419.160606"/>
      </g>
     </g>
     <g id="text_13">
      <!-- 0.5 -->
      <g transform="translate(85.096875 422.959825)scale(0.1 -0.1)">
       <use xlink:href="#DejaVuSans-48"/>
       <use x="63.623047" xlink:href="#DejaVuSans-46"/>
       <use x="95.410156" xlink:href="#DejaVuSans-53"/>
      </g>
     </g>
    </g>
    <g id="ytick_3">
     <g id="line2d_12">
      <g>
       <use style="stroke:#000000;stroke-width:0.8;" x="108" xlink:href="#m1c910e90d5" y="354.068939"/>
      </g>
     </g>
     <g id="text_14">
      <!-- 1.0 -->
      <g transform="translate(85.096875 357.868157)scale(0.1 -0.1)">
       <use xlink:href="#DejaVuSans-49"/>
       <use x="63.623047" xlink:href="#DejaVuSans-46"/>
       <use x="95.410156" xlink:href="#DejaVuSans-48"/>
      </g>
     </g>
    </g>
    <g id="ytick_4">
     <g id="line2d_13">
      <g>
       <use style="stroke:#000000;stroke-width:0.8;" x="108" xlink:href="#m1c910e90d5" y="288.977271"/>
      </g>
     </g>
     <g id="text_15">
      <!-- 1.5 -->
      <g transform="translate(85.096875 292.77649)scale(0.1 -0.1)">
       <use xlink:href="#DejaVuSans-49"/>
       <use x="63.623047" xlink:href="#DejaVuSans-46"/>
       <use x="95.410156" xlink:href="#DejaVuSans-53"/>
      </g>
     </g>
    </g>
    <g id="ytick_5">
     <g id="line2d_14">
      <g>
       <use style="stroke:#000000;stroke-width:0.8;" x="108" xlink:href="#m1c910e90d5" y="223.885604"/>
      </g>
     </g>
     <g id="text_16">
      <!-- 2.0 -->
      <g transform="translate(85.096875 227.684823)scale(0.1 -0.1)">
       <use xlink:href="#DejaVuSans-50"/>
       <use x="63.623047" xlink:href="#DejaVuSans-46"/>
       <use x="95.410156" xlink:href="#DejaVuSans-48"/>
      </g>
     </g>
    </g>
    <g id="ytick_6">
     <g id="line2d_15">
      <g>
       <use style="stroke:#000000;stroke-width:0.8;" x="108" xlink:href="#m1c910e90d5" y="158.793936"/>
      </g>
     </g>
     <g id="text_17">
      <!-- 2.5 -->
      <g transform="translate(85.096875 162.593155)scale(0.1 -0.1)">
       <use xlink:href="#DejaVuSans-50"/>
       <use x="63.623047" xlink:href="#DejaVuSans-46"/>
       <use x="95.410156" xlink:href="#DejaVuSans-53"/>
      </g>
     </g>
    </g>
    <g id="ytick_7">
     <g id="line2d_16">
      <g>
       <use style="stroke:#000000;stroke-width:0.8;" x="108" xlink:href="#m1c910e90d5" y="93.702269"/>
      </g>
     </g>
     <g id="text_18">
      <!-- 3.0 -->
      <g transform="translate(85.096875 97.501488)scale(0.1 -0.1)">
       <defs>
        <path d="M 40.578125 39.3125 
Q 47.65625 37.796875 51.625 33 
Q 55.609375 28.21875 55.609375 21.1875 
Q 55.609375 10.40625 48.1875 4.484375 
Q 40.765625 -1.421875 27.09375 -1.421875 
Q 22.515625 -1.421875 17.65625 -0.515625 
Q 12.796875 0.390625 7.625 2.203125 
L 7.625 11.71875 
Q 11.71875 9.328125 16.59375 8.109375 
Q 21.484375 6.890625 26.8125 6.890625 
Q 36.078125 6.890625 40.9375 10.546875 
Q 45.796875 14.203125 45.796875 21.1875 
Q 45.796875 27.640625 41.28125 31.265625 
Q 36.765625 34.90625 28.71875 34.90625 
L 20.21875 34.90625 
L 20.21875 43.015625 
L 29.109375 43.015625 
Q 36.375 43.015625 40.234375 45.921875 
Q 44.09375 48.828125 44.09375 54.296875 
Q 44.09375 59.90625 40.109375 62.90625 
Q 36.140625 65.921875 28.71875 65.921875 
Q 24.65625 65.921875 20.015625 65.03125 
Q 15.375 64.15625 9.8125 62.3125 
L 9.8125 71.09375 
Q 15.4375 72.65625 20.34375 73.4375 
Q 25.25 74.21875 29.59375 74.21875 
Q 40.828125 74.21875 47.359375 69.109375 
Q 53.90625 64.015625 53.90625 55.328125 
Q 53.90625 49.265625 50.4375 45.09375 
Q 46.96875 40.921875 40.578125 39.3125 
z
" id="DejaVuSans-51"/>
       </defs>
       <use xlink:href="#DejaVuSans-51"/>
       <use x="63.623047" xlink:href="#DejaVuSans-46"/>
       <use x="95.410156" xlink:href="#DejaVuSans-48"/>
      </g>
     </g>
    </g>
    <g id="text_19">
     <!-- 1e11 -->
     <g transform="translate(108 66.12)scale(0.1 -0.1)">
      <use xlink:href="#DejaVuSans-49"/>
      <use x="63.623047" xlink:href="#DejaVuSans-101"/>
      <use x="125.146484" xlink:href="#DejaVuSans-49"/>
      <use x="188.769531" xlink:href="#DejaVuSans-49"/>
     </g>
    </g>
   </g>
   <g id="line2d_17">
    <path clip-path="url(#pa3d0f7ac46)" d="M 138.436364 484.213186 
L 139.518078 483.013637 
L 139.858046 482.789454 
L 140.259826 482.51541 
L 141.496071 481.694407 
L 142.423255 481.045748 
L 142.855941 480.813935 
L 143.134096 480.621236 
L 143.319533 480.515853 
L 143.628595 480.312291 
L 145.946555 478.851188 
L 146.162898 478.701914 
L 146.441053 478.516132 
L 146.688302 478.359814 
L 146.997364 478.152185 
L 147.368237 477.954612 
L 147.708205 477.711585 
L 148.511764 477.246406 
L 148.94445 476.978827 
L 149.562573 476.588986 
L 149.933447 476.325218 
L 150.180696 476.209678 
L 150.551569 475.94458 
L 153.580371 474.152008 
L 153.889432 473.960866 
L 154.2294 473.785967 
L 154.631179 473.562984 
L 155.7438 472.901695 
L 156.021956 472.728965 
L 156.207392 472.603617 
L 156.454641 472.459706 
L 156.701891 472.320767 
L 157.041858 472.092449 
L 157.227295 471.978497 
L 157.659981 471.744926 
L 157.999948 471.516409 
L 159.514349 470.629136 
L 159.82341 470.4374 
L 160.688782 469.874564 
L 160.966937 469.703572 
L 161.121468 469.61821 
L 161.399623 469.446076 
L 161.554154 469.359827 
L 161.863215 469.162453 
L 162.110465 469.020953 
L 163.099461 468.408924 
L 163.624865 468.095849 
L 163.964833 467.861863 
L 164.242988 467.727369 
L 164.521143 467.546924 
L 164.737486 467.422805 
L 166.746385 466.176581 
L 167.055446 465.978999 
L 167.209977 465.897457 
L 167.519038 465.71697 
L 167.8281 465.546751 
L 168.291692 465.286918 
L 168.508035 465.148023 
L 168.848002 464.916682 
L 169.064345 464.807491 
L 169.620656 464.453862 
L 169.929717 464.272801 
L 170.795089 463.741364 
L 171.073244 463.555729 
L 171.444118 463.362865 
L 171.753179 463.164337 
L 173.236674 462.246909 
L 173.576641 462.014389 
L 174.874699 461.016435 
L 175.214667 460.826108 
L 175.554634 460.626023 
L 175.740071 460.536142 
L 176.018226 460.372017 
L 177.779876 459.275864 
L 178.088937 459.079879 
L 178.676154 458.769521 
L 178.954309 458.627033 
L 179.66515 458.275881 
L 179.943306 458.11752 
L 180.221461 457.973292 
L 180.623241 457.745564 
L 180.901396 457.5676 
L 181.241363 457.38314 
L 181.519518 457.223363 
L 185.197349 454.978857 
L 185.599129 454.749166 
L 185.784565 454.643381 
L 186.062721 454.479543 
L 186.217251 454.371725 
L 186.557219 454.13208 
L 186.835374 454.027202 
L 187.144435 453.807029 
L 187.66984 453.493393 
L 188.009807 453.247788 
L 188.164338 453.172019 
L 188.442493 452.994226 
L 188.689742 452.863918 
L 189.02971 452.625443 
L 189.215147 452.527261 
L 190.111425 451.986882 
L 190.327768 451.878742 
L 190.636829 451.667319 
L 197.930677 447.151145 
L 198.208832 446.971745 
L 198.5488 446.772808 
L 198.826955 446.585569 
L 199.043298 446.472286 
L 199.35236 446.267407 
L 199.537796 446.143861 
L 199.939576 445.859225 
L 200.248637 445.668554 
L 200.557699 445.446927 
L 200.743136 445.353391 
L 201.021291 445.156309 
L 201.206728 445.052587 
L 201.546695 444.799767 
L 201.855757 444.591909 
L 202.659316 444.130257 
L 202.999284 443.88056 
L 205.935367 442.064823 
L 206.213522 441.873202 
L 206.429865 441.740347 
L 208.562388 440.358674 
L 208.840544 440.151019 
L 209.056886 440.026264 
L 209.365948 439.833901 
L 210.849442 438.907751 
L 211.18941 438.690681 
L 211.467565 438.4928 
L 211.683908 438.361868 
L 211.99297 438.14716 
L 212.240219 438.009382 
L 212.54928 437.787033 
L 213.754619 436.965244 
L 214.063681 436.77627 
L 215.392645 435.933399 
L 215.6708 435.741576 
L 216.907045 434.897087 
L 217.216107 434.679706 
L 217.463356 434.55624 
L 217.772417 434.340311 
L 220.615782 432.46616 
L 220.893937 432.276726 
L 221.233904 432.069419 
L 221.51206 431.889998 
L 222.624681 431.167851 
L 223.211897 430.749735 
L 223.42824 430.642933 
L 223.799114 430.397592 
L 224.108175 430.194555 
L 224.78811 429.749334 
L 225.066265 429.574421 
L 225.251702 429.455556 
L 225.7462 429.131147 
L 227.662381 427.89268 
L 233.410922 424.17083 
L 233.689078 423.982584 
L 234.059951 423.7615 
L 235.141666 423.061892 
L 235.419821 422.861621 
L 235.728883 422.696023 
L 236.007038 422.496273 
L 236.161569 422.381889 
L 244.660756 416.834908 
L 244.969818 416.617766 
L 245.340691 416.378085 
L 246.885998 415.366225 
L 247.164153 415.187217 
L 260.113825 406.769357 
L 260.39198 406.573359 
L 260.917384 406.240867 
L 261.195539 406.055536 
L 261.380976 405.964321 
L 261.720944 405.722716 
L 262.617222 405.118558 
L 262.771752 405.012531 
L 263.266251 404.688049 
L 263.729843 404.387928 
L 264.007998 404.215916 
L 264.378872 403.961989 
L 264.626121 403.800734 
L 268.056702 401.595213 
L 268.334857 401.391438 
L 268.5512 401.276597 
L 268.983886 401.014366 
L 269.262041 400.812603 
L 269.478384 400.715084 
L 269.818352 400.460028 
L 270.900066 399.747081 
L 271.332752 399.468334 
L 272.507186 398.710302 
L 273.867056 397.819781 
L 274.052492 397.718351 
L 274.485178 397.430146 
L 274.639709 397.334469 
L 274.917864 397.158119 
L 277.235825 395.656336 
L 277.575792 395.413597 
L 278.101196 395.089496 
L 278.410258 394.859602 
L 278.750225 394.674939 
L 316.95021 369.825556 
L 317.104741 369.717366 
L 317.599239 369.363105 
L 318.031925 369.096658 
L 318.31008 368.896245 
L 318.55733 368.757474 
L 320.07173 367.752551 
L 320.318979 367.584715 
L 320.504416 367.476067 
L 320.782571 367.294375 
L 321.060727 367.107909 
L 321.709756 366.74323 
L 321.83338 366.623315 
L 322.173348 366.405698 
L 322.482409 366.177405 
L 322.79147 366.007598 
L 323.131438 365.754379 
L 323.409593 365.607056 
L 323.749561 365.351503 
L 324.182247 365.054655 
L 324.367683 364.949016 
L 327.365579 363.012742 
L 327.581922 362.878192 
L 327.860077 362.692397 
L 328.014607 362.599677 
L 328.292763 362.395991 
L 328.416387 362.308717 
L 328.725449 362.077352 
L 329.281759 361.741576 
L 329.559914 361.542815 
L 329.868976 361.36242 
L 330.147131 361.172925 
L 337.935477 356.011434 
L 338.120914 355.899392 
L 338.460882 355.697586 
L 338.615412 355.574509 
L 340.469781 354.37016 
L 340.71703 354.220566 
L 344.734828 351.553417 
L 345.074795 351.301166 
L 345.229326 351.209313 
L 345.816542 350.830192 
L 353.51217 345.810713 
L 353.728513 345.694247 
L 354.006669 345.512055 
L 354.223012 345.364537 
L 354.562979 345.155372 
L 354.71751 345.048314 
L 360.033365 341.50853 
L 360.342427 341.326056 
L 361.022362 340.887746 
L 361.362329 340.698105 
L 361.671391 340.46677 
L 361.856827 340.379354 
L 362.165889 340.15957 
L 362.845824 339.684094 
L 375.270091 331.617006 
L 375.424622 331.525767 
L 375.764589 331.294196 
L 376.011838 331.151515 
L 376.289993 330.959919 
L 376.506336 330.845671 
L 376.846304 330.593562 
L 377.031741 330.479131 
L 377.371708 330.259907 
L 377.557145 330.156362 
L 377.866206 329.934152 
L 378.175268 329.750139 
L 378.917015 329.212044 
L 379.133358 329.069015 
L 379.411513 328.903998 
L 379.627856 328.779928 
L 379.99873 328.508914 
L 380.245979 328.356997 
L 381.420412 327.580905 
L 381.698567 327.398872 
L 381.884004 327.27612 
L 382.193066 327.043321 
L 382.378502 326.92791 
L 382.903907 326.598292 
L 383.182062 326.413119 
L 383.429311 326.227057 
L 383.769278 326.002755 
L 383.954715 325.893559 
L 384.201964 325.734794 
L 384.48012 325.565087 
L 384.820087 325.312571 
L 386.767174 324.108688 
L 387.014423 323.961593 
L 388.55973 322.94471 
L 389.054228 322.626902 
L 389.456008 322.345621 
L 389.641445 322.237351 
L 389.9196 322.056388 
L 397.707946 316.999913 
L 397.986101 316.81852 
L 403.425582 313.278798 
L 403.580112 313.178033 
L 403.92008 312.958647 
L 404.136423 312.821615 
L 404.569109 312.539195 
L 404.816358 312.38127 
L 407.59791 310.552364 
L 407.845159 310.399134 
L 410.904867 308.438666 
L 411.028491 308.343101 
L 411.306646 308.146385 
L 411.584802 307.972315 
L 411.986581 307.706724 
L 412.511986 307.376727 
L 412.666517 307.266885 
L 413.161015 306.959867 
L 413.562794 306.711952 
L 413.99548 306.426502 
L 414.242729 306.295931 
L 414.613603 306.003519 
L 417.271531 304.214161 
L 417.487874 304.091186 
L 417.766029 303.898875 
L 419.373148 302.911889 
L 419.867646 302.614761 
L 420.083989 302.479449 
L 420.423957 302.224182 
L 420.856643 301.933918 
L 421.04208 301.850109 
L 421.351141 301.623705 
L 422.309231 301.024465 
L 422.587386 300.814722 
L 422.741917 300.741614 
L 423.050979 300.508479 
L 423.298228 300.341534 
L 423.607289 300.14098 
L 423.947256 299.886084 
L 424.689004 299.410511 
L 424.905347 299.283771 
L 425.894343 298.671499 
L 426.203404 298.440255 
L 426.388841 298.310691 
L 426.914246 297.976845 
L 427.161495 297.809567 
L 427.408744 297.671332 
L 428.79952 296.791373 
L 428.954051 296.704573 
L 429.294018 296.453607 
L 429.60308 296.278984 
L 429.881235 296.076189 
L 430.221202 295.888085 
L 430.499358 295.697366 
L 430.653888 295.584835 
L 431.241105 295.188553 
L 431.550166 294.969307 
L 431.890134 294.763456 
L 432.199195 294.544259 
L 432.539163 294.31656 
L 435.722495 292.221319 
L 436.155181 291.941209 
L 436.495148 291.699891 
L 436.835116 291.524453 
L 437.144177 291.301706 
L 437.453238 291.129885 
L 437.731394 290.932576 
L 438.009549 290.76549 
L 438.380422 290.522227 
L 438.658578 290.330256 
L 438.905827 290.187995 
L 439.214888 289.953185 
L 439.554856 289.797224 
L 439.894823 289.529235 
L 440.172978 289.369869 
L 455.347892 279.441565 
L 455.687859 279.225085 
L 455.99692 279.00615 
L 456.24417 278.857718 
L 456.491419 278.706329 
L 457.387697 278.102052 
L 457.665852 277.91815 
L 458.16035 277.606725 
L 458.469411 277.38559 
L 463.723455 273.954377 
L 463.970704 273.814862 
L 464.279765 273.589008 
L 469.070216 270.463252 
L 469.224747 270.349608 
L 469.811964 269.932905 
L 470.090119 269.765923 
L 470.39918 269.532494 
L 470.584617 269.438441 
L 470.924585 269.208358 
L 472.16083 268.400321 
L 472.438985 268.203113 
L 472.593516 268.093933 
L 473.489794 267.50562 
L 473.767949 267.319055 
L 474.046104 267.148591 
L 475.405974 266.283561 
L 475.931379 265.935164 
L 476.085909 265.826182 
L 476.394971 265.618894 
L 476.64222 265.475276 
L 477.19853 265.118306 
L 477.383967 265.010795 
L 477.693029 264.79193 
L 477.909372 264.672262 
L 478.249339 264.41177 
L 478.40387 264.314783 
L 478.743837 264.079068 
L 479.331054 263.723616 
L 479.609209 263.533554 
L 480.289144 263.113584 
L 480.598205 262.895744 
L 481.030891 262.605931 
L 481.27814 262.445346 
L 481.556296 262.264474 
L 482.0817 261.935143 
L 482.267137 261.829421 
L 482.761635 261.50528 
L 483.163415 261.247718 
L 483.472476 261.026144 
L 483.719725 260.870665 
L 487.273931 258.547788 
L 487.613899 258.311436 
L 488.015678 258.069808 
L 488.32474 257.851169 
L 488.571989 257.703185 
L 489.190112 257.307585 
L 489.468267 257.115259 
L 489.622797 257.020404 
L 489.900953 256.843171 
L 490.086389 256.73249 
L 490.364545 256.550533 
L 505.44674 246.703126 
L 505.663082 246.563011 
L 506.157581 246.213643 
L 506.466642 246.045757 
L 506.80661 245.789833 
L 507.115671 245.573732 
L 507.36292 245.410526 
L 507.548357 245.283635 
L 507.950137 245.021294 
L 508.290104 244.814946 
L 508.599165 244.590364 
L 508.784602 244.503321 
L 509.031851 244.35562 
L 510.669877 243.250263 
L 520.219873 237.037287 
L 520.343498 236.924226 
L 520.528934 236.804988 
L 520.714371 236.675407 
L 521.610649 236.140102 
L 521.888804 235.955037 
L 522.136053 235.815591 
L 522.414209 235.620569 
L 522.537833 235.538262 
L 522.846895 235.325882 
L 523.063238 235.205028 
L 523.774079 234.727696 
L 523.959516 234.631547 
L 524.268577 234.397926 
L 524.639451 234.183779 
L 524.979418 233.92004 
L 525.659353 233.50365 
L 525.875696 233.374566 
L 526.215664 233.12355 
L 526.432006 232.99214 
L 529.059028 231.298356 
L 529.36809 231.076274 
L 529.553526 230.973765 
L 529.831682 230.805045 
L 530.140743 230.595461 
L 530.387992 230.461653 
L 530.697053 230.226652 
L 530.975209 230.079527 
L 531.253364 229.903926 
L 532.026017 229.406164 
L 532.335079 229.187739 
L 532.64414 228.990139 
L 532.953201 228.756461 
L 533.107732 228.681121 
L 533.416793 228.456309 
L 533.664043 228.315332 
L 533.973104 228.09451 
L 534.220353 227.917426 
L 535.36388 227.14921 
L 535.672941 226.927295 
L 535.889284 226.808594 
L 536.229252 226.587782 
L 536.383783 226.494167 
L 536.692844 226.267611 
L 537.959996 225.432162 
L 538.454494 225.087444 
L 538.670837 224.985059 
L 539.010804 224.733223 
L 539.319866 224.566274 
L 539.659833 224.280706 
L 539.814364 224.193975 
L 540.123425 223.975373 
L 540.463393 223.748114 
L 548.437176 218.647557 
L 548.591707 218.543901 
L 549.055299 218.244569 
L 549.333454 218.09015 
L 549.611609 217.885999 
L 549.920671 217.709945 
L 550.229732 217.494422 
L 550.446075 217.356446 
L 550.755136 217.171415 
L 551.12601 216.921727 
L 551.589602 216.628973 
L 551.898663 216.417433 
L 552.115006 216.277954 
L 552.424068 216.038071 
L 552.733129 215.859612 
L 553.536689 215.328906 
L 553.907562 215.109876 
L 562.252219 209.605142 
L 562.375844 209.525434 
L 562.684905 209.304566 
L 564.199306 208.341036 
L 564.910147 207.848519 
L 565.590082 207.398084 
L 565.806425 207.290547 
L 566.115486 207.062277 
L 566.331829 206.978527 
L 566.702703 206.677851 
L 567.506262 206.191229 
L 567.815324 205.971479 
L 568.526165 205.504617 
L 568.742508 205.368454 
L 569.082475 205.097877 
L 569.298818 204.985978 
L 569.576974 204.800701 
L 572.142183 203.136038 
L 572.296714 203.044381 
L 572.636681 202.792105 
L 574.151082 201.819053 
L 574.64558 201.489299 
L 574.861923 201.375 
L 575.170984 201.164185 
L 577.36532 199.719952 
L 577.705288 199.487788 
L 578.137974 199.235091 
L 578.570659 198.968181 
L 578.941533 198.702521 
L 579.621468 198.286531 
L 580.455934 197.761125 
L 580.764995 197.540185 
L 581.166775 197.273705 
L 581.475836 197.043307 
L 581.877616 196.798049 
L 582.433927 196.418845 
L 582.897519 196.120539 
L 583.237486 195.904286 
L 583.76289 195.571356 
L 584.041046 195.379357 
L 584.288295 195.232221 
L 586.049945 194.078761 
L 586.3281 193.919621 
L 586.668067 193.660894 
L 586.88441 193.549301 
L 587.502533 193.137676 
L 587.718876 193.01686 
L 588.027937 192.796978 
L 589.140558 192.078723 
L 589.44962 191.857979 
L 591.303988 190.617573 
L 592.138454 190.077212 
L 592.385703 189.929889 
L 592.694764 189.710696 
L 592.942013 189.56122 
L 593.096544 189.472687 
L 593.405605 189.25535 
L 593.869197 188.906995 
L 594.827287 188.279751 
L 595.167255 188.079322 
L 595.44541 187.899124 
L 595.661753 187.763675 
L 595.970815 187.546907 
L 596.4035 187.252599 
L 598.783273 185.751314 
L 598.906898 185.668735 
L 599.215959 185.445467 
L 599.37049 185.350377 
L 599.772269 185.066086 
L 599.9268 184.970555 
L 609.538609 178.7096 
L 609.785858 178.558395 
L 610.465793 178.124132 
L 610.774854 177.897916 
L 611.362071 177.549494 
L 611.702038 177.292163 
L 612.629222 176.714532 
L 612.907378 176.524906 
L 613.092814 176.404357 
L 614.73084 175.332435 
L 615.410775 174.860213 
L 615.658024 174.700444 
L 615.874367 174.558103 
L 616.183428 174.34573 
L 616.925175 173.874599 
L 617.110612 173.760578 
L 617.388767 173.566788 
L 617.512392 173.475563 
L 618.00689 173.137243 
L 618.192327 173.028897 
L 618.532295 172.76945 
L 618.841356 172.579241 
L 619.119511 172.377061 
L 619.335854 172.265229 
L 619.892165 171.893862 
L 620.046695 171.788586 
L 620.850255 171.327436 
L 621.159316 171.110944 
L 621.68472 170.783843 
L 622.0865 170.539941 
L 623.199121 169.792163 
L 623.44637 169.640378 
L 623.786338 169.377382 
L 624.095399 169.187228 
L 624.373554 169.014702 
L 624.682616 168.813125 
L 625.640706 168.182822 
L 625.980674 167.964762 
L 626.258829 167.77253 
L 626.413359 167.673978 
L 626.691515 167.491965 
L 626.846045 167.407763 
L 627.186013 167.149491 
L 627.896854 166.686142 
L 628.175009 166.501341 
L 628.360446 166.382952 
L 628.762226 166.146239 
L 629.040381 165.960697 
L 629.225818 165.836519 
L 629.565785 165.603092 
L 629.782128 165.480759 
L 630.09119 165.268355 
L 630.276627 165.151964 
L 630.740219 164.876942 
L 631.04928 164.656079 
L 631.203811 164.569956 
L 631.574684 164.272088 
L 631.821933 164.144372 
L 632.161901 163.884234 
L 632.625493 163.5996 
L 632.96546 163.365133 
L 633.521771 163.003005 
L 633.799926 162.821774 
L 634.696204 162.23101 
L 635.005265 162.008111 
L 640.073872 158.733648 
L 640.413839 158.461089 
L 640.56837 158.36861 
L 640.877432 158.141837 
L 643.009955 156.797389 
L 643.164486 156.69079 
L 643.349922 156.558865 
L 649.067558 152.908518 
L 649.283901 152.788788 
L 649.654774 152.509109 
L 649.93293 152.362414 
L 650.736489 151.822631 
L 650.983738 151.671581 
L 651.601861 151.242876 
L 651.787298 151.123765 
L 652.096359 150.925995 
L 654.043446 149.725182 
L 654.414319 149.427953 
L 654.661569 149.312893 
L 654.97063 149.088973 
L 655.156067 148.985404 
L 655.52694 148.759821 
L 655.681471 148.668919 
L 655.990532 148.451671 
L 656.917717 147.805854 
L 657.103153 147.705467 
L 657.381309 147.507174 
L 657.999431 147.134586 
L 658.277587 146.960131 
L 659.019334 146.450721 
L 659.204771 146.32683 
L 659.45202 146.16423 
L 659.699269 146.018626 
L 660.039236 145.792606 
L 660.471922 145.488754 
L 660.719171 145.342467 
L 661.028233 145.130429 
L 661.151857 145.050504 
L 661.491825 144.805171 
L 661.986323 144.514319 
L 662.419009 144.219783 
L 663.12985 143.800578 
L 663.469818 143.548778 
L 663.964316 143.225402 
L 664.242471 143.037367 
L 666.374994 141.665884 
L 666.65315 141.461024 
L 666.931305 141.319054 
L 667.240366 141.096007 
L 667.487615 140.952153 
L 667.765771 140.768732 
L 667.951207 140.638142 
L 668.229363 140.469512 
L 669.465608 139.689733 
L 669.558327 139.611644 
L 669.867388 139.397885 
L 670.176449 139.195289 
L 670.516417 138.970036 
L 670.825478 138.787888 
L 671.536319 138.312424 
L 672.958002 137.39543 
L 673.205251 137.25516 
L 673.359781 137.135733 
L 673.823373 136.828039 
L 674.317872 136.524739 
L 674.657839 136.257625 
L 674.874182 136.120577 
L 675.337774 135.838945 
L 675.523211 135.734376 
L 677.872077 134.201927 
L 678.150233 134.013377 
L 678.644731 133.70762 
L 678.953792 133.478869 
L 679.29376 133.264087 
L 679.510103 133.150856 
L 679.973695 132.827309 
L 680.282756 132.593458 
L 681.240846 131.960556 
L 681.519002 131.776924 
L 683.126121 130.759677 
L 685.969485 128.903436 
L 686.185828 128.756358 
L 688.596507 127.155212 
L 688.874662 126.972974 
L 689.523691 126.540261 
L 689.678222 126.453104 
L 690.080001 126.186289 
L 690.358157 126.004962 
L 745.21655 90.155829 
L 745.61833 89.895065 
L 745.803766 89.780226 
L 746.081922 89.585635 
L 746.267358 89.485401 
L 746.885481 89.068275 
L 747.163636 88.887273 
L 747.163636 88.887273 
" style="fill:none;stroke:#1f77b4;stroke-linecap:square;stroke-width:1.5;"/>
   </g>
   <g id="line2d_18">
    <path clip-path="url(#pa3d0f7ac46)" d="M 138.436364 484.232727 
L 145.761118 479.735917 
L 158.154479 472.444882 
L 186.71175 455.601597 
L 205.100901 444.436995 
L 217.185201 436.804599 
L 561.510472 219.117317 
L 747.163636 101.610669 
L 747.163636 101.610669 
" style="fill:none;stroke:#ff7f0e;stroke-linecap:square;stroke-width:1.5;"/>
   </g>
   <g id="patch_3">
    <path d="M 108 504 
L 108 69.12 
" style="fill:none;stroke:#000000;stroke-linecap:square;stroke-linejoin:miter;stroke-width:0.8;"/>
   </g>
   <g id="patch_4">
    <path d="M 777.6 504 
L 777.6 69.12 
" style="fill:none;stroke:#000000;stroke-linecap:square;stroke-linejoin:miter;stroke-width:0.8;"/>
   </g>
   <g id="patch_5">
    <path d="M 108 504 
L 777.6 504 
" style="fill:none;stroke:#000000;stroke-linecap:square;stroke-linejoin:miter;stroke-width:0.8;"/>
   </g>
   <g id="patch_6">
    <path d="M 108 69.12 
L 777.6 69.12 
" style="fill:none;stroke:#000000;stroke-linecap:square;stroke-linejoin:miter;stroke-width:0.8;"/>
   </g>
   <g id="legend_1">
    <g id="patch_7">
     <path d="M 115 106.47625 
L 257.039062 106.47625 
Q 259.039062 106.47625 259.039062 104.47625 
L 259.039062 76.12 
Q 259.039062 74.12 257.039062 74.12 
L 115 74.12 
Q 113 74.12 113 76.12 
L 113 104.47625 
Q 113 106.47625 115 106.47625 
z
" style="fill:#ffffff;opacity:0.8;stroke:#cccccc;stroke-linejoin:miter;"/>
    </g>
    <g id="line2d_19">
     <path d="M 117 82.218437 
L 137 82.218437 
" style="fill:none;stroke:#1f77b4;stroke-linecap:square;stroke-width:1.5;"/>
    </g>
    <g id="line2d_20"/>
    <g id="text_20">
     <!-- cumulative gas used -->
     <g transform="translate(145 85.718437)scale(0.1 -0.1)">
      <defs>
       <path d="M 8.5 21.578125 
L 8.5 54.6875 
L 17.484375 54.6875 
L 17.484375 21.921875 
Q 17.484375 14.15625 20.5 10.265625 
Q 23.53125 6.390625 29.59375 6.390625 
Q 36.859375 6.390625 41.078125 11.03125 
Q 45.3125 15.671875 45.3125 23.6875 
L 45.3125 54.6875 
L 54.296875 54.6875 
L 54.296875 0 
L 45.3125 0 
L 45.3125 8.40625 
Q 42.046875 3.421875 37.71875 1 
Q 33.40625 -1.421875 27.6875 -1.421875 
Q 18.265625 -1.421875 13.375 4.4375 
Q 8.5 10.296875 8.5 21.578125 
z
M 31.109375 56 
z
" id="DejaVuSans-117"/>
       <path d="M 52 44.1875 
Q 55.375 50.25 60.0625 53.125 
Q 64.75 56 71.09375 56 
Q 79.640625 56 84.28125 50.015625 
Q 88.921875 44.046875 88.921875 33.015625 
L 88.921875 0 
L 79.890625 0 
L 79.890625 32.71875 
Q 79.890625 40.578125 77.09375 44.375 
Q 74.3125 48.1875 68.609375 48.1875 
Q 61.625 48.1875 57.5625 43.546875 
Q 53.515625 38.921875 53.515625 30.90625 
L 53.515625 0 
L 44.484375 0 
L 44.484375 32.71875 
Q 44.484375 40.625 41.703125 44.40625 
Q 38.921875 48.1875 33.109375 48.1875 
Q 26.21875 48.1875 22.15625 43.53125 
Q 18.109375 38.875 18.109375 30.90625 
L 18.109375 0 
L 9.078125 0 
L 9.078125 54.6875 
L 18.109375 54.6875 
L 18.109375 46.1875 
Q 21.1875 51.21875 25.484375 53.609375 
Q 29.78125 56 35.6875 56 
Q 41.65625 56 45.828125 52.96875 
Q 50 49.953125 52 44.1875 
z
" id="DejaVuSans-109"/>
       <path d="M 34.28125 27.484375 
Q 23.390625 27.484375 19.1875 25 
Q 14.984375 22.515625 14.984375 16.5 
Q 14.984375 11.71875 18.140625 8.90625 
Q 21.296875 6.109375 26.703125 6.109375 
Q 34.1875 6.109375 38.703125 11.40625 
Q 43.21875 16.703125 43.21875 25.484375 
L 43.21875 27.484375 
z
M 52.203125 31.203125 
L 52.203125 0 
L 43.21875 0 
L 43.21875 8.296875 
Q 40.140625 3.328125 35.546875 0.953125 
Q 30.953125 -1.421875 24.3125 -1.421875 
Q 15.921875 -1.421875 10.953125 3.296875 
Q 6 8.015625 6 15.921875 
Q 6 25.140625 12.171875 29.828125 
Q 18.359375 34.515625 30.609375 34.515625 
L 43.21875 34.515625 
L 43.21875 35.40625 
Q 43.21875 41.609375 39.140625 45 
Q 35.0625 48.390625 27.6875 48.390625 
Q 23 48.390625 18.546875 47.265625 
Q 14.109375 46.140625 10.015625 43.890625 
L 10.015625 52.203125 
Q 14.9375 54.109375 19.578125 55.046875 
Q 24.21875 56 28.609375 56 
Q 40.484375 56 46.34375 49.84375 
Q 52.203125 43.703125 52.203125 31.203125 
z
" id="DejaVuSans-97"/>
       <path d="M 18.3125 70.21875 
L 18.3125 54.6875 
L 36.8125 54.6875 
L 36.8125 47.703125 
L 18.3125 47.703125 
L 18.3125 18.015625 
Q 18.3125 11.328125 20.140625 9.421875 
Q 21.96875 7.515625 27.59375 7.515625 
L 36.8125 7.515625 
L 36.8125 0 
L 27.59375 0 
Q 17.1875 0 13.234375 3.875 
Q 9.28125 7.765625 9.28125 18.015625 
L 9.28125 47.703125 
L 2.6875 47.703125 
L 2.6875 54.6875 
L 9.28125 54.6875 
L 9.28125 70.21875 
z
" id="DejaVuSans-116"/>
       <path d="M 9.421875 54.6875 
L 18.40625 54.6875 
L 18.40625 0 
L 9.421875 0 
z
M 9.421875 75.984375 
L 18.40625 75.984375 
L 18.40625 64.59375 
L 9.421875 64.59375 
z
" id="DejaVuSans-105"/>
       <path d="M 2.984375 54.6875 
L 12.5 54.6875 
L 29.59375 8.796875 
L 46.6875 54.6875 
L 56.203125 54.6875 
L 35.6875 0 
L 23.484375 0 
z
" id="DejaVuSans-118"/>
       <path id="DejaVuSans-32"/>
       <path d="M 45.40625 27.984375 
Q 45.40625 37.75 41.375 43.109375 
Q 37.359375 48.484375 30.078125 48.484375 
Q 22.859375 48.484375 18.828125 43.109375 
Q 14.796875 37.75 14.796875 27.984375 
Q 14.796875 18.265625 18.828125 12.890625 
Q 22.859375 7.515625 30.078125 7.515625 
Q 37.359375 7.515625 41.375 12.890625 
Q 45.40625 18.265625 45.40625 27.984375 
z
M 54.390625 6.78125 
Q 54.390625 -7.171875 48.1875 -13.984375 
Q 42 -20.796875 29.203125 -20.796875 
Q 24.46875 -20.796875 20.265625 -20.09375 
Q 16.0625 -19.390625 12.109375 -17.921875 
L 12.109375 -9.1875 
Q 16.0625 -11.328125 19.921875 -12.34375 
Q 23.78125 -13.375 27.78125 -13.375 
Q 36.625 -13.375 41.015625 -8.765625 
Q 45.40625 -4.15625 45.40625 5.171875 
L 45.40625 9.625 
Q 42.625 4.78125 38.28125 2.390625 
Q 33.9375 0 27.875 0 
Q 17.828125 0 11.671875 7.65625 
Q 5.515625 15.328125 5.515625 27.984375 
Q 5.515625 40.671875 11.671875 48.328125 
Q 17.828125 56 27.875 56 
Q 33.9375 56 38.28125 53.609375 
Q 42.625 51.21875 45.40625 46.390625 
L 45.40625 54.6875 
L 54.390625 54.6875 
z
" id="DejaVuSans-103"/>
       <path d="M 44.28125 53.078125 
L 44.28125 44.578125 
Q 40.484375 46.53125 36.375 47.5 
Q 32.28125 48.484375 27.875 48.484375 
Q 21.1875 48.484375 17.84375 46.4375 
Q 14.5 44.390625 14.5 40.28125 
Q 14.5 37.15625 16.890625 35.375 
Q 19.28125 33.59375 26.515625 31.984375 
L 29.59375 31.296875 
Q 39.15625 29.25 43.1875 25.515625 
Q 47.21875 21.78125 47.21875 15.09375 
Q 47.21875 7.46875 41.1875 3.015625 
Q 35.15625 -1.421875 24.609375 -1.421875 
Q 20.21875 -1.421875 15.453125 -0.5625 
Q 10.6875 0.296875 5.421875 2 
L 5.421875 11.28125 
Q 10.40625 8.6875 15.234375 7.390625 
Q 20.0625 6.109375 24.8125 6.109375 
Q 31.15625 6.109375 34.5625 8.28125 
Q 37.984375 10.453125 37.984375 14.40625 
Q 37.984375 18.0625 35.515625 20.015625 
Q 33.0625 21.96875 24.703125 23.78125 
L 21.578125 24.515625 
Q 13.234375 26.265625 9.515625 29.90625 
Q 5.8125 33.546875 5.8125 39.890625 
Q 5.8125 47.609375 11.28125 51.796875 
Q 16.75 56 26.8125 56 
Q 31.78125 56 36.171875 55.265625 
Q 40.578125 54.546875 44.28125 53.078125 
z
" id="DejaVuSans-115"/>
       <path d="M 45.40625 46.390625 
L 45.40625 75.984375 
L 54.390625 75.984375 
L 54.390625 0 
L 45.40625 0 
L 45.40625 8.203125 
Q 42.578125 3.328125 38.25 0.953125 
Q 33.9375 -1.421875 27.875 -1.421875 
Q 17.96875 -1.421875 11.734375 6.484375 
Q 5.515625 14.40625 5.515625 27.296875 
Q 5.515625 40.1875 11.734375 48.09375 
Q 17.96875 56 27.875 56 
Q 33.9375 56 38.25 53.625 
Q 42.578125 51.265625 45.40625 46.390625 
z
M 14.796875 27.296875 
Q 14.796875 17.390625 18.875 11.75 
Q 22.953125 6.109375 30.078125 6.109375 
Q 37.203125 6.109375 41.296875 11.75 
Q 45.40625 17.390625 45.40625 27.296875 
Q 45.40625 37.203125 41.296875 42.84375 
Q 37.203125 48.484375 30.078125 48.484375 
Q 22.953125 48.484375 18.875 42.84375 
Q 14.796875 37.203125 14.796875 27.296875 
z
" id="DejaVuSans-100"/>
      </defs>
      <use xlink:href="#DejaVuSans-99"/>
      <use x="54.980469" xlink:href="#DejaVuSans-117"/>
      <use x="118.359375" xlink:href="#DejaVuSans-109"/>
      <use x="215.771484" xlink:href="#DejaVuSans-117"/>
      <use x="279.150391" xlink:href="#DejaVuSans-108"/>
      <use x="306.933594" xlink:href="#DejaVuSans-97"/>
      <use x="368.212891" xlink:href="#DejaVuSans-116"/>
      <use x="407.421875" xlink:href="#DejaVuSans-105"/>
      <use x="435.205078" xlink:href="#DejaVuSans-118"/>
      <use x="494.384766" xlink:href="#DejaVuSans-101"/>
      <use x="555.908203" xlink:href="#DejaVuSans-32"/>
      <use x="587.695312" xlink:href="#DejaVuSans-103"/>
      <use x="651.171875" xlink:href="#DejaVuSans-97"/>
      <use x="712.451172" xlink:href="#DejaVuSans-115"/>
      <use x="764.550781" xlink:href="#DejaVuSans-32"/>
      <use x="796.337891" xlink:href="#DejaVuSans-117"/>
      <use x="859.716797" xlink:href="#DejaVuSans-115"/>
      <use x="911.816406" xlink:href="#DejaVuSans-101"/>
      <use x="973.339844" xlink:href="#DejaVuSans-100"/>
     </g>
    </g>
    <g id="line2d_21">
     <path d="M 117 96.896563 
L 137 96.896563 
" style="fill:none;stroke:#ff7f0e;stroke-linecap:square;stroke-width:1.5;"/>
    </g>
    <g id="line2d_22"/>
    <g id="text_21">
     <!-- cumulative target gas -->
     <g transform="translate(145 100.396563)scale(0.1 -0.1)">
      <defs>
       <path d="M 41.109375 46.296875 
Q 39.59375 47.171875 37.8125 47.578125 
Q 36.03125 48 33.890625 48 
Q 26.265625 48 22.1875 43.046875 
Q 18.109375 38.09375 18.109375 28.8125 
L 18.109375 0 
L 9.078125 0 
L 9.078125 54.6875 
L 18.109375 54.6875 
L 18.109375 46.1875 
Q 20.953125 51.171875 25.484375 53.578125 
Q 30.03125 56 36.53125 56 
Q 37.453125 56 38.578125 55.875 
Q 39.703125 55.765625 41.0625 55.515625 
z
" id="DejaVuSans-114"/>
      </defs>
      <use xlink:href="#DejaVuSans-99"/>
      <use x="54.980469" xlink:href="#DejaVuSans-117"/>
      <use x="118.359375" xlink:href="#DejaVuSans-109"/>
      <use x="215.771484" xlink:href="#DejaVuSans-117"/>
      <use x="279.150391" xlink:href="#DejaVuSans-108"/>
      <use x="306.933594" xlink:href="#DejaVuSans-97"/>
      <use x="368.212891" xlink:href="#DejaVuSans-116"/>
      <use x="407.421875" xlink:href="#DejaVuSans-105"/>
      <use x="435.205078" xlink:href="#DejaVuSans-118"/>
      <use x="494.384766" xlink:href="#DejaVuSans-101"/>
      <use x="555.908203" xlink:href="#DejaVuSans-32"/>
      <use x="587.695312" xlink:href="#DejaVuSans-116"/>
      <use x="626.904297" xlink:href="#DejaVuSans-97"/>
      <use x="688.183594" xlink:href="#DejaVuSans-114"/>
      <use x="727.546875" xlink:href="#DejaVuSans-103"/>
      <use x="791.023438" xlink:href="#DejaVuSans-101"/>
      <use x="852.546875" xlink:href="#DejaVuSans-116"/>
      <use x="891.755859" xlink:href="#DejaVuSans-32"/>
      <use x="923.542969" xlink:href="#DejaVuSans-103"/>
      <use x="987.019531" xlink:href="#DejaVuSans-97"/>
      <use x="1048.298828" xlink:href="#DejaVuSans-115"/>
     </g>
    </g>
   </g>
  </g>
 </g>
 <defs>
  <clipPath id="pa3d0f7ac46">
   <rect height="434.88" width="669.6" x="108" y="69.12"/>
  </clipPath>
 </defs>
</svg>
